<?xml version="1.0" encoding="utf-8"?>
<!-- Generator: Adobe Illustrator 18.1.1, SVG Export Plug-In . SVG Version: 6.00 Build 0)  -->
<svg version="1.1" id="Layer_1" xmlns="http://www.w3.org/2000/svg" xmlns:xlink="http://www.w3.org/1999/xlink" x="0px" y="0px"
	 viewBox="0 0 500 500" enable-background="new 0 0 500 500" xml:space="preserve">
<g>
	<g>
		<rect x="205.6" y="257.5" fill="#CFA75E" width="10" height="29.8"/>
		<rect x="278.1" y="257.5" fill="#CFA75E" width="10" height="29.8"/>
		<path fill="#8A4324" d="M241.5,13c-62.2,0-112.7,111.7-112.7,249.5h225.3C354.2,124.7,303.8,13,241.5,13z"/>
		
			<ellipse transform="matrix(0.1991 -0.98 0.98 0.1991 -52.0933 306.8617)" fill="#642D10" cx="161.7" cy="185.3" rx="103.8" ry="32.1"/>
		
			<ellipse transform="matrix(0.1991 0.98 -0.98 0.1991 441.7162 -169.9528)" fill="#642D10" cx="324.8" cy="185.3" rx="103.8" ry="32.1"/>
		<circle fill="#8A4324" cx="194.7" cy="84.3" r="46.4"/>
		<path fill="#8A4324" d="M171.2,26.7c-1.4,0-2.8,0.1-4.2,0.3c12.4,2,21.8,12.7,21.8,25.7c0,12.9-9.5,23.7-21.8,25.7
			c1.4,0.2,2.8,0.3,4.2,0.3c14.4,0,26-11.6,26-26S185.6,26.7,171.2,26.7z"/>
		<path fill="#8A4324" d="M164.8,39.4c-1.4,0-2.8,0.1-4.2,0.3c12.4,2,21.8,12.7,21.8,25.7s-9.5,23.7-21.8,25.7
			c1.4,0.2,2.8,0.3,4.2,0.3c14.4,0,26-11.6,26-26C190.8,51.1,179.2,39.4,164.8,39.4z"/>
		<path fill="#8A4324" d="M315.7,24.5c1.4,0,2.8,0.1,4.2,0.3c-12.4,2-21.8,12.7-21.8,25.7c0,12.9,9.5,23.7,21.8,25.7
			c-1.4,0.2-2.8,0.3-4.2,0.3c-14.4,0-26-11.6-26-26C289.7,36.2,301.3,24.5,315.7,24.5z"/>
		<path fill="#8A4324" d="M323.9,37.3c1.4,0,2.8,0.1,4.2,0.3c-12.4,2-21.8,12.7-21.8,25.7c0,12.9,9.5,23.7,21.8,25.7
			c-1.4,0.2-2.8,0.3-4.2,0.3c-14.4,0-26-11.6-26-26S309.5,37.3,323.9,37.3z"/>
		<circle fill="#8A4324" cx="287.9" cy="84.3" r="46.4"/>
		<circle fill="#E8D2C4" cx="195.7" cy="84.6" r="39.4"/>
		
			<rect x="218.6" y="118.5" transform="matrix(-0.7071 0.7071 -0.7071 -0.7071 512.3767 69.8284)" fill="#642D10" width="46.3" height="45"/>
		<circle fill="#E8D2C4" cx="288.8" cy="84.6" r="39.4"/>
		<ellipse fill="#CFA75E" cx="241.5" cy="120.5" rx="7.8" ry="22.3"/>
		<circle fill="#DFA710" cx="194.6" cy="81.7" r="24.3"/>
		<circle fill="#DFA710" cx="288.8" cy="81.7" r="24.3"/>
		<circle fill="#231F20" cx="195.8" cy="81.1" r="12.2"/>
		<circle fill="#231F20" cx="286.4" cy="81.1" r="12.2"/>
		<polygon fill="#E8D2C4" points="241.8,54.9 177.5,5.1 241.8,69.4 306.1,5.1 		"/>
		<ellipse fill="#E8D2C4" cx="195.8" cy="102.9" rx="28.8" ry="19.3"/>
		<ellipse fill="#E8D2C4" cx="290.1" cy="102.9" rx="28.8" ry="19.3"/>
	</g>
	<path opacity="0.5" fill="#3A3A3A" d="M156.2,119.4l-13.3,115.8h92.9c-5.7-19.8-12.8-36.8-20.2-49c2.9-6,4.5-12.8,4.5-19.9
		c0-16.3-8.4-30.5-21-38.8c3.8-4.1,9-6.9,14.8-7.9c-1.4-0.2-2.8-0.3-4.2-0.3c-5.9,0-11.3,2-15.7,5.3c-2.5-1.2-5.1-2.2-7.8-2.9
		c3.6-7.7,10.8-13.4,19.4-14.8c-1.4-0.2-2.8-0.3-4.2-0.3c-9.9,0-18.5,5.5-22.9,13.7c-0.7-0.1-1.3-0.1-2-0.2c-2.9-3.2-5.9-6-9-8.6
		l24.3-24.3L164,108.7c-4.1-3.1-8.2-5.7-12.5-7.8L156.2,119.4z"/>
	<g>
		<rect x="86.4" y="340.7" fill="#CFA75E" width="10" height="29.8"/>
		<rect x="158.9" y="340.7" fill="#CFA75E" width="10" height="29.8"/>
		<path fill="#8A4324" d="M122.3,96.3C60.1,96.3,9.7,208,9.7,345.8H235C235,208,184.5,96.3,122.3,96.3z"/>
		
			<ellipse transform="matrix(0.1991 -0.98 0.98 0.1991 -230.6459 254.9913)" fill="#642D10" cx="40.7" cy="268.6" rx="103.8" ry="32.1"/>
		
			<ellipse transform="matrix(0.1991 0.98 -0.98 0.1991 427.7992 13.5945)" fill="#642D10" cx="205.6" cy="268.5" rx="103.8" ry="32.1"/>
		<circle fill="#8A4324" cx="75.5" cy="167.6" r="46.4"/>
		<path fill="#8A4324" d="M52,109.9c-1.4,0-2.8,0.1-4.2,0.3c12.4,2,21.8,12.7,21.8,25.7c0,12.9-9.5,23.7-21.8,25.7
			c1.4,0.2,2.8,0.3,4.2,0.3c14.4,0,26-11.6,26-26C78,121.6,66.4,109.9,52,109.9z"/>
		<path fill="#8A4324" d="M45.6,122.7c-1.4,0-2.8,0.1-4.2,0.3c12.4,2,21.8,12.7,21.8,25.7c0,12.9-9.5,23.7-21.8,25.7
			c1.4,0.2,2.8,0.3,4.2,0.3c14.4,0,26-11.6,26-26C71.6,134.4,60,122.7,45.6,122.7z"/>
		<path fill="#8A4324" d="M196.5,107.8c1.4,0,2.8,0.1,4.2,0.3c-12.4,2-21.8,12.7-21.8,25.7c0,12.9,9.5,23.7,21.8,25.7
			c-1.4,0.2-2.8,0.3-4.2,0.3c-14.4,0-26-11.6-26-26C170.5,119.5,182.1,107.8,196.5,107.8z"/>
		<path fill="#8A4324" d="M204.7,120.6c1.4,0,2.8,0.1,4.2,0.3c-12.4,2-21.8,12.7-21.8,25.7c0,12.9,9.5,23.7,21.8,25.7
			c-1.4,0.2-2.8,0.3-4.2,0.3c-14.4,0-26-11.6-26-26C178.7,132.2,190.3,120.6,204.7,120.6z"/>
		<circle fill="#8A4324" cx="168.7" cy="167.6" r="46.4"/>
		<circle fill="#E8D2C4" cx="76.4" cy="167.9" r="39.4"/>
		
			<rect x="99.4" y="201.8" transform="matrix(-0.7071 0.7071 -0.7071 -0.7071 367.7949 296.271)" fill="#642D10" width="46.3" height="45"/>
		<circle fill="#E8D2C4" cx="169.6" cy="167.9" r="39.4"/>
		<ellipse fill="#CFA75E" cx="122.3" cy="203.8" rx="7.8" ry="22.3"/>
		<circle fill="#DFA710" cx="75.4" cy="165" r="24.3"/>
		<circle fill="#DFA710" cx="169.6" cy="165" r="24.3"/>
		<circle fill="#231F20" cx="76.6" cy="164.3" r="12.2"/>
		<circle fill="#231F20" cx="167.2" cy="164.3" r="12.2"/>
		<polygon fill="#E8D2C4" points="122.6,138.2 58.3,88.4 122.6,152.7 186.9,88.4 		"/>
		<ellipse fill="#E8D2C4" cx="76.6" cy="186.2" rx="28.8" ry="19.3"/>
		<ellipse fill="#E8D2C4" cx="170.8" cy="186.2" rx="28.8" ry="19.3"/>
	</g>
	<path opacity="0.5" fill="#3A3A3A" d="M382,181.6l-46.1-73c-0.8,0.5-1.5,1.1-2.3,1.7L306.1,89l24.1,24.1c-3.1,2.6-6.1,5.4-9,8.6
		c-4.7-6.7-12.5-11.1-21.3-11.1c-1.4,0-2.8,0.1-4.2,0.3c7.6,1.2,14,5.7,17.9,12c-3.2,0.7-6.2,1.7-9.1,2.9c-3.4-1.6-7.1-2.5-11.1-2.5
		c-1.4,0-2.8,0.1-4.2,0.3c4,0.6,7.7,2.2,10.8,4.4c-13.8,8-23.2,23-23.2,40.1c0,7.9,2,15.3,5.4,21.8c-1.2,3.3-2.4,6.8-3.5,10.3
		c-5,10.5-9.7,23-13.7,36.9h213.5c-2.6-9.1-5.6-17.7-8.7-25.4L382,181.6z"/>
	<path opacity="0.5" fill="#3A3A3A" d="M142.9,276.9c0,7.9,2,15.3,5.4,21.8c-1.2,3.3-2.4,6.8-3.5,10.3c-5,10.5-9.7,23-13.7,36.9
		h213.5c-5.7-19.8-12.8-36.8-20.2-49c2.9-6,4.5-12.8,4.5-19.9c0-16.3-8.4-30.5-21-38.8c3.8-4.1,9-6.9,14.8-7.9
		c-1.4-0.2-2.8-0.3-4.2-0.3c-5.9,0-11.3,2-15.7,5.3c-2.5-1.2-5.1-2.2-7.8-2.9c3.6-7.7,10.8-13.4,19.4-14.8c-1.4-0.2-2.8-0.3-4.2-0.3
		c-9.9,0-18.5,5.5-22.9,13.7c-0.7-0.1-1.3-0.1-2-0.2c-2.9-3.2-5.9-6-9-8.6l24.3-24.3l-27.8,21.5c-11.5-8.8-23.9-13.6-36.8-13.6
		c-12.8,0-25.1,4.7-36.6,13.4L172,197.7l24.1,24.1c-3.1,2.6-6.1,5.4-9,8.6c-4.7-6.7-12.5-11.1-21.3-11.1c-1.4,0-2.8,0.1-4.2,0.3
		c7.6,1.2,14,5.7,17.9,12c-3.2,0.7-6.2,1.7-9.1,2.9c-3.4-1.6-7.1-2.5-11.1-2.5c-1.4,0-2.8,0.1-4.2,0.3c4,0.6,7.7,2.2,10.8,4.4
		C152.2,244.7,142.9,259.7,142.9,276.9z"/>
	<g>
		<rect x="340.1" y="340.7" fill="#CFA75E" width="10" height="29.8"/>
		<rect x="412.6" y="340.7" fill="#CFA75E" width="10" height="29.8"/>
		<path fill="#8A4324" d="M376,96.3c-62.2,0-112.7,111.7-112.7,249.5h225.3C488.7,208,438.2,96.3,376,96.3z"/>
		
			<ellipse transform="matrix(0.1991 -0.98 0.98 0.1991 -27.4654 503.6253)" fill="#642D10" cx="294.4" cy="268.6" rx="103.8" ry="32.1"/>
		
			<ellipse transform="matrix(0.1991 0.98 -0.98 0.1991 630.992 -235.0038)" fill="#642D10" cx="459.3" cy="268.5" rx="103.8" ry="32.1"/>
		<circle fill="#8A4324" cx="329.2" cy="167.6" r="46.4"/>
		<path fill="#8A4324" d="M305.7,109.9c-1.4,0-2.8,0.1-4.2,0.3c12.4,2,21.8,12.7,21.8,25.7c0,12.9-9.5,23.7-21.8,25.7
			c1.4,0.2,2.8,0.3,4.2,0.3c14.4,0,26-11.6,26-26C331.7,121.6,320,109.9,305.7,109.9z"/>
		<path fill="#8A4324" d="M299.3,122.7c-1.4,0-2.8,0.1-4.2,0.3c12.4,2,21.8,12.7,21.8,25.7c0,12.9-9.5,23.7-21.8,25.7
			c1.4,0.2,2.8,0.3,4.2,0.3c14.4,0,26-11.6,26-26C325.3,134.4,313.7,122.7,299.3,122.7z"/>
		<path fill="#8A4324" d="M450.2,107.8c1.4,0,2.8,0.1,4.2,0.3c-12.4,2-21.8,12.7-21.8,25.7c0,12.9,9.5,23.7,21.8,25.7
			c-1.4,0.2-2.8,0.3-4.2,0.3c-14.4,0-26-11.6-26-26C424.2,119.5,435.8,107.8,450.2,107.8z"/>
		<path fill="#8A4324" d="M458.4,120.6c1.4,0,2.8,0.1,4.2,0.3c-12.4,2-21.8,12.7-21.8,25.7c0,12.9,9.5,23.7,21.8,25.7
			c-1.4,0.2-2.8,0.3-4.2,0.3c-14.4,0-26-11.6-26-26C432.3,132.2,444,120.6,458.4,120.6z"/>
		<circle fill="#8A4324" cx="422.4" cy="167.6" r="46.4"/>
		<circle fill="#E8D2C4" cx="330.1" cy="167.9" r="39.4"/>
		
			<rect x="353.1" y="201.8" transform="matrix(-0.7071 0.7071 -0.7071 -0.7071 800.871 116.8745)" fill="#642D10" width="46.3" height="45"/>
		<circle fill="#E8D2C4" cx="423.3" cy="167.9" r="39.4"/>
		<ellipse fill="#CFA75E" cx="376" cy="203.8" rx="7.8" ry="22.3"/>
		<circle fill="#DFA710" cx="329.1" cy="165" r="24.3"/>
		<circle fill="#DFA710" cx="423.3" cy="165" r="24.3"/>
		<circle fill="#231F20" cx="330.3" cy="164.3" r="12.2"/>
		<circle fill="#231F20" cx="420.9" cy="164.3" r="12.2"/>
		<polygon fill="#E8D2C4" points="376.3,138.2 312,88.4 376.3,152.7 440.6,88.4 		"/>
		<ellipse fill="#E8D2C4" cx="330.3" cy="186.2" rx="28.8" ry="19.3"/>
		<ellipse fill="#E8D2C4" cx="424.5" cy="186.2" rx="28.8" ry="19.3"/>
	</g>
	<path opacity="0.5" fill="#3A3A3A" d="M155.6,276.9c0,7.9,2,15.3,5.4,21.8c-1.2,3.3-2.4,6.8-3.5,10.3c-5,10.5-9.7,23-13.7,36.9
		h213.5c-5.7-19.8-12.8-36.8-20.2-49c2.9-6,4.5-12.8,4.5-19.9c0-16.3-8.4-30.5-21-38.8c3.8-4.1,9-6.9,14.8-7.9
		c-1.4-0.2-2.8-0.3-4.2-0.3c-5.9,0-11.3,2-15.7,5.3c-2.5-1.2-5.1-2.2-7.8-2.9c3.6-7.7,10.8-13.4,19.4-14.8c-1.4-0.2-2.8-0.3-4.2-0.3
		c-9.9,0-18.5,5.5-22.9,13.7c-0.7-0.1-1.3-0.1-2-0.2c-2.9-3.2-5.9-6-9-8.6l24.3-24.3l-27.8,21.5c-11.5-8.8-23.9-13.6-36.8-13.6
		c-12.8,0-25.1,4.7-36.6,13.4l-27.5-21.3l24.1,24.1c-3.1,2.6-6.1,5.4-9,8.6c-4.7-6.7-12.5-11.1-21.3-11.1c-1.4,0-2.8,0.1-4.2,0.3
		c7.6,1.2,14,5.7,17.9,12c-3.2,0.7-6.2,1.7-9.1,2.9c-3.4-1.6-7.1-2.5-11.1-2.5c-1.4,0-2.8,0.1-4.2,0.3c4,0.6,7.7,2.2,10.8,4.4
		C164.9,244.7,155.6,259.7,155.6,276.9z"/>
	<g>
		<rect x="205.6" y="453.6" fill="#CFA75E" width="10" height="29.8"/>
		<rect x="278.1" y="453.6" fill="#CFA75E" width="10" height="29.8"/>
		<path fill="#8A4324" d="M241.5,209.2c-62.2,0-112.7,111.7-112.7,249.5h225.3C354.2,320.9,303.8,209.2,241.5,209.2z"/>
		
			<ellipse transform="matrix(0.1991 -0.98 0.98 0.1991 -245.7151 462.1588)" fill="#642D10" cx="159.9" cy="381.4" rx="103.8" ry="32.1"/>
		
			<ellipse transform="matrix(0.1991 0.98 -0.98 0.1991 633.9673 -12.8303)" fill="#642D10" cx="324.8" cy="381.4" rx="103.8" ry="32.1"/>
		<circle fill="#8A4324" cx="194.7" cy="280.5" r="46.4"/>
		<path fill="#8A4324" d="M171.2,222.8c-1.4,0-2.8,0.1-4.2,0.3c12.4,2,21.8,12.7,21.8,25.7c0,12.9-9.5,23.7-21.8,25.7
			c1.4,0.2,2.8,0.3,4.2,0.3c14.4,0,26-11.6,26-26C197.2,234.5,185.6,222.8,171.2,222.8z"/>
		<path fill="#8A4324" d="M164.8,235.6c-1.4,0-2.8,0.1-4.2,0.3c12.4,2,21.8,12.7,21.8,25.7c0,12.9-9.5,23.7-21.8,25.7
			c1.4,0.2,2.8,0.3,4.2,0.3c14.4,0,26-11.6,26-26C190.8,247.2,179.2,235.6,164.8,235.6z"/>
		<path fill="#8A4324" d="M315.7,220.7c1.4,0,2.8,0.1,4.2,0.3c-12.4,2-21.8,12.7-21.8,25.7c0,12.9,9.5,23.7,21.8,25.7
			c-1.4,0.2-2.8,0.3-4.2,0.3c-14.4,0-26-11.6-26-26C289.7,232.3,301.3,220.7,315.7,220.7z"/>
		<path fill="#8A4324" d="M323.9,233.4c1.4,0,2.8,0.1,4.2,0.3c-12.4,2-21.8,12.7-21.8,25.7c0,12.9,9.5,23.7,21.8,25.7
			c-1.4,0.2-2.8,0.3-4.2,0.3c-14.4,0-26-11.6-26-26C297.9,245.1,309.5,233.4,323.9,233.4z"/>
		<circle fill="#8A4324" cx="287.9" cy="280.5" r="46.4"/>
		<circle fill="#E8D2C4" cx="195.7" cy="280.8" r="39.4"/>
		
			<rect x="218.6" y="314.7" transform="matrix(-0.7071 0.7071 -0.7071 -0.7071 651.1703 404.6934)" fill="#642D10" width="46.3" height="45"/>
		<circle fill="#E8D2C4" cx="288.8" cy="280.8" r="39.4"/>
		<ellipse fill="#CFA75E" cx="241.5" cy="316.7" rx="7.8" ry="22.3"/>
		<circle fill="#DFA710" cx="194.6" cy="277.8" r="24.3"/>
		<circle fill="#DFA710" cx="288.8" cy="277.8" r="24.3"/>
		<circle fill="#231F20" cx="195.8" cy="277.2" r="12.2"/>
		<circle fill="#231F20" cx="286.4" cy="277.2" r="12.2"/>
		<polygon fill="#E8D2C4" points="241.8,251.1 177.5,201.3 241.8,265.6 306.1,201.3 		"/>
		<ellipse fill="#E8D2C4" cx="195.8" cy="299.1" rx="28.8" ry="19.3"/>
		<ellipse fill="#E8D2C4" cx="290.1" cy="299.1" rx="28.8" ry="19.3"/>
	</g>
	<polygon fill="#CFA75E" points="186.8,494.9 210.6,471 234.5,494.9 	"/>
	<polygon fill="#CFA75E" points="259.2,494.9 283.1,471 307,494.9 	"/>
	<polygon fill="#CFA75E" points="393.3,386.1 417.2,362.3 441,386.1 	"/>
	<polygon fill="#CFA75E" points="67.2,386.1 91,362.3 114.9,386.1 	"/>
</g>
</svg>
