<?xml version="1.0" encoding="utf-8"?>
<!-- Generator: Adobe Illustrator 18.1.1, SVG Export Plug-In . SVG Version: 6.00 Build 0)  -->
<svg version="1.1" id="Layer_1" xmlns="http://www.w3.org/2000/svg" xmlns:xlink="http://www.w3.org/1999/xlink" x="0px" y="0px"
	 viewBox="-116 117.1 266.9 266.9" enable-background="new -116 117.1 266.9 266.9" xml:space="preserve">
<path d="M132.1,121.7H-97.2c-7.9,0-14.2,6.4-14.2,14.2v229.3c0,7.9,6.4,14.2,14.2,14.2H26.2v-99.8H-7.3v-38.9h33.6V212
	c0-33.3,20.3-51.4,50-51.4c14.2,0,26.5,1.1,30,1.5v34.8l-20.6,0c-16.1,0-19.3,7.7-19.3,18.9v24.8h38.5l-5,38.9H66.4v99.8h65.7
	c7.9,0,14.2-6.4,14.2-14.2V135.9C146.3,128.1,139.9,121.7,132.1,121.7z"/>
</svg>
