<?xml version="1.0" encoding="utf-8"?>
<!-- Generator: Adobe Illustrator 18.1.1, SVG Export Plug-In . SVG Version: 6.00 Build 0)  -->
<svg version="1.1" id="Layer_1" xmlns="http://www.w3.org/2000/svg" xmlns:xlink="http://www.w3.org/1999/xlink" x="0px" y="0px"
	 viewBox="0 0 500 500" enable-background="new 0 0 500 500" xml:space="preserve">
<g>
	<g>
		<rect x="303.9" y="355.1" fill="#F0D0B3" width="12.4" height="55.6"/>
		<rect x="354.5" y="355.1" fill="#F0D0B3" width="12.4" height="55.6"/>
		<ellipse fill="#F0D0B3" cx="276.7" cy="320.6" rx="10.6" ry="20.1"/>
		<ellipse fill="#F0D0B3" cx="394.2" cy="320.6" rx="10.6" ry="20.1"/>
		<rect x="271" y="277.3" fill="#F0D0B3" width="10.2" height="38.5"/>
		<rect x="388.9" y="277.3" fill="#F0D0B3" width="10.2" height="38.5"/>
		<rect x="293" y="283.3" fill="#D5C2AC" width="35.1" height="85.8"/>
		<rect x="343.7" y="283.3" fill="#D5C2AC" width="35.1" height="85.8"/>
		<rect x="293" y="279.6" fill="#C6B29D" width="35.1" height="21.4"/>
		<rect x="266.1" y="289.4" fill="#0067B3" width="21.1" height="11.1"/>
		<rect x="384" y="289.4" fill="#0067B3" width="21.1" height="11.1"/>
		<rect x="343.7" y="279.6" fill="#C6B29D" width="35.1" height="21.4"/>
		<g>
			<path fill="#00A9AC" d="M310.1,404.4c-12.2,0-22.1,9.9-22.1,22.1h44.1C332.2,414.2,322.3,404.4,310.1,404.4z"/>
			<path fill="#00A9AC" d="M362.5,404.4c-12.2,0-22.1,9.9-22.1,22.1h44.1C384.6,414.2,374.7,404.4,362.5,404.4z"/>
			<path fill="#FFFFFF" d="M310.7,410c-9.3,0-16.8,7.5-16.8,16.8h33.7C327.5,417.5,320,410,310.7,410z"/>
			<path fill="#FFFFFF" d="M362.5,410.7c-9.3,0-16.8,7.5-16.8,16.8h33.7C379.3,418.3,371.8,410.7,362.5,410.7z"/>
			<rect x="288" y="426.4" fill="#D6E0F2" width="44.1" height="5.4"/>
			<rect x="340.4" y="426.4" fill="#D6E0F2" width="44.1" height="5.4"/>
		</g>
		<g>
			<path fill="#008ACD" d="M393.5,164c0-15.9-26.5-28.8-59.2-28.8c-32.7,0-59.2,12.9-59.2,28.8c0,4.9,2.6,9.6,7.1,13.7
				c-0.1,0.6-0.2,1.3-0.2,2c0,14.1,23.4,25.5,52.3,25.5c28.9,0,52.3-11.4,52.3-25.5c0-0.7-0.1-1.3-0.2-2
				C390.9,173.6,393.5,169,393.5,164z"/>
			<ellipse fill="#69330D" cx="335.6" cy="106.3" rx="48.1" ry="49.1"/>
			<path fill="#008ACD" d="M335.8,156.1c-40.9,0-74.1,61.6-74.1,137.6h148.2C409.9,217.7,376.7,156.1,335.8,156.1z"/>
			<rect x="305.6" y="199.8" fill="#FFFFFF" width="2.5" height="59.8"/>
			<rect x="360.9" y="199.8" fill="#FFFFFF" width="2.5" height="59.8"/>
			<path fill="#0067B3" d="M386.4,173.1c0.1,0.6,0.2,1.3,0.2,2c0,14.1-23.4,25.5-52.3,25.5c-28.9,0-52.3-11.4-52.3-25.5
				c0-0.7,0.1-1.3,0.2-2c-3.8-3.4-6.2-7.2-6.9-11.3c-0.1,0.7-0.2,1.5-0.2,2.3c0,4.9,2.6,9.6,7.1,13.7c-0.1,0.6-0.2,1.3-0.2,2
				c0,14.1,23.4,25.5,52.3,25.5c28.9,0,52.3-11.4,52.3-25.5c0-0.7-0.1-1.3-0.2-2c4.5-4.1,7.1-8.7,7.1-13.7c0-0.8-0.1-1.5-0.2-2.3
				C392.6,165.8,390.2,169.7,386.4,173.1z"/>
			<ellipse fill="#F0D0B3" cx="335.8" cy="126" rx="45.1" ry="62.4"/>
			<path fill="#DEB18A" d="M335.8,184.8c-24.4,0-44.3-27-45-60.6c0,0.6,0,1.2,0,1.8c0,34.5,20.2,62.4,45.1,62.4
				c24.9,0,45.1-28,45.1-62.4c0-0.6,0-1.2,0-1.8C380.1,157.8,360.3,184.8,335.8,184.8z"/>
			
				<ellipse transform="matrix(0.8699 -0.4933 0.4933 0.8699 0.4735 170.3535)" fill="#69330D" cx="323.1" cy="84.3" rx="35.3" ry="20.2"/>
			<path fill="#0067B3" d="M335.2,192.8c-20.2,0-36.7-11-37.7-24.8c0,0.4,0,0.8,0,1.3c0,14.4,16.9,26,37.7,26
				c20.8,0,37.7-11.7,37.7-26c0-0.4,0-0.9,0-1.3C371.9,181.9,355.4,192.8,335.2,192.8z"/>
			<circle fill="#FFFFFF" cx="307.2" cy="262.8" r="4.1"/>
			<circle fill="#FFFFFF" cx="362.4" cy="262.8" r="4.1"/>
			<path fill="#231F20" d="M344.9,127.1c0,2.4-1.9,4.3-4.3,4.3H332c-2.4,0-4.3-1.9-4.3-4.3l0,0c0-2.4,1.9-4.3,4.3-4.3h8.6
				C343,122.8,344.9,124.8,344.9,127.1L344.9,127.1z"/>
			
				<ellipse transform="matrix(0.9896 -0.1438 0.1438 0.9896 -14.8474 42.7788)" fill="#F0D0B3" cx="288.4" cy="124.1" rx="9.7" ry="18.4"/>
			
				<ellipse transform="matrix(0.9777 0.2102 -0.2102 0.9777 34.6661 -77.9934)" fill="#F0D0B3" cx="384.2" cy="124.1" rx="9.7" ry="18.4"/>
			<path fill="#231F20" d="M334,132.2c0,4.7-3.8,8.6-8.6,8.6h-32c-4.7,0-8.6-3.8-8.6-8.6v-28.1c0-4.7,3.8-8.6,8.6-8.6h32
				c4.7,0,8.6,3.8,8.6,8.6V132.2z"/>
			<path fill="#FFFFFF" d="M329.4,129.4c0,3.8-3,6.8-6.8,6.8h-25.3c-3.8,0-6.8-3-6.8-6.8v-22.2c0-3.8,3-6.8,6.8-6.8h25.3
				c3.8,0,6.8,3,6.8,6.8V129.4z"/>
			<path fill="#231F20" d="M387.4,132.2c0,4.7-3.8,8.6-8.6,8.6h-32c-4.7,0-8.6-3.8-8.6-8.6v-28.1c0-4.7,3.8-8.6,8.6-8.6h32
				c4.7,0,8.6,3.8,8.6,8.6V132.2z"/>
			<path fill="#FFFFFF" d="M382.2,129.4c0,3.8-3,6.8-6.8,6.8h-25.3c-3.8,0-6.8-3-6.8-6.8v-22.2c0-3.8,3-6.8,6.8-6.8h25.3
				c3.8,0,6.8,3,6.8,6.8V129.4z"/>
			<ellipse fill="#DEB18A" cx="336.3" cy="141.1" rx="8.6" ry="10.6"/>
			<path fill="#69330D" d="M305.6,89.2c-12.8,0-23.4-9.9-24.3-22.5c0,0.6-0.1,1.2-0.1,1.8c0,13.5,10.9,24.4,24.4,24.4
				c13.5,0,24.4-10.9,24.4-24.4c0-0.6,0-1.2-0.1-1.8C329,79.3,318.5,89.2,305.6,89.2z"/>
			<path fill="#69330D" d="M313,89.2c-12.8,0-23.4-9.9-24.3-22.5c0,0.6-0.1,1.2-0.1,1.8c0,13.5,10.9,24.4,24.4,24.4
				c13.5,0,24.4-10.9,24.4-24.4c0-0.6,0-1.2-0.1-1.8C336.4,79.3,325.8,89.2,313,89.2z"/>
			<circle fill="#231F20" cx="309.2" cy="118.1" r="6.2"/>
			<circle fill="#231F20" cx="361.7" cy="118.1" r="6.2"/>
			<circle fill="#FFFFFF" cx="309.2" cy="123.6" r="6.2"/>
			<circle fill="#FFFFFF" cx="361.7" cy="123.6" r="6.2"/>
			<path fill="#FFFFFF" d="M335.8,165.7c-10.9,0-19.9-8-21.5-18.4c-0.2,1.1-0.3,2.2-0.3,3.4c0,12,9.8,21.8,21.8,21.8
				c12,0,21.8-9.8,21.8-21.8c0-1.1-0.1-2.3-0.3-3.4C355.7,157.8,346.7,165.7,335.8,165.7z"/>
		</g>
	</g>
	<g>
		<g>
			<rect x="388.2" y="336.3" fill="#404041" width="35.1" height="116.2"/>
			<rect x="438.9" y="336.3" fill="#404041" width="35.1" height="116.2"/>
			<rect x="388.2" y="335.4" fill="#231F20" width="35.1" height="21.4"/>
			<rect x="438.9" y="335.4" fill="#231F20" width="35.1" height="21.4"/>
			<ellipse fill="#C5A593" cx="486.9" cy="352" rx="8" ry="15.3"/>
			<ellipse fill="#C5A593" cx="377.3" cy="352" rx="8" ry="15.3"/>
			<g>
				<path fill="#231F20" d="M405.3,438.9c-12.2,0-22.1,9.9-22.1,22.1h44.1C427.4,448.8,417.5,438.9,405.3,438.9z"/>
				<path fill="#231F20" d="M457.7,438.9c-12.2,0-22.1,9.9-22.1,22.1h44.1C479.8,448.8,469.9,438.9,457.7,438.9z"/>
				<path fill="#FFFFFF" d="M405.9,444.5c-9.3,0-16.8,7.5-16.8,16.8h33.7C422.7,452.1,415.2,444.5,405.9,444.5z"/>
				<path fill="#FFFFFF" d="M457.7,445.3c-9.3,0-16.8,7.5-16.8,16.8h33.7C474.5,452.8,467,445.3,457.7,445.3z"/>
				<rect x="383.2" y="461" fill="#D6E0F2" width="44.1" height="5.4"/>
				<rect x="435.6" y="461" fill="#D6E0F2" width="44.1" height="5.4"/>
			</g>
			<g>
				<rect x="367.3" y="345.2" fill="#735590" width="18.9" height="10.7"/>
				<rect x="477.8" y="345.2" fill="#735590" width="18.9" height="10.7"/>
				<path fill="#8867AB" d="M484.2,198.1c0-15.9-24-28.8-53.5-28.8c-29.6,0-53.5,12.9-53.5,28.8c0,4.9,2.3,9.6,6.4,13.7
					c-0.1,0.6-0.2,1.3-0.2,2c0,14.1,21.2,25.5,47.3,25.5c26.1,0,47.3-11.4,47.3-25.5c0-0.7-0.1-1.3-0.2-2
					C481.8,207.7,484.2,203,484.2,198.1z"/>
				<path fill="#8867AB" d="M432,190.2c-37,0-66.9,71.7-66.9,160.2H499C499,261.9,469,190.2,432,190.2z"/>
				<rect x="457.3" y="233.9" fill="#FFFFFF" width="2.5" height="32.2"/>
				<path fill="#A45285" d="M464.4,88.7c-0.2,0.6-0.4,1.3-0.6,1.9c-4.2,11.9-17.3,18.1-29.2,13.9c-1.2-0.4-2.4-1-3.5-1.6
					c2.1,3.7,5.4,6.6,9.7,8.1c9.5,3.4,19.9-1.6,23.2-11.1C465.5,96.2,465.5,92.3,464.4,88.7z"/>
				<path fill="#A45285" d="M466.1,102.2c-0.2,0.4-0.4,0.9-0.7,1.3c-4.8,7.9-15.2,10.5-23.2,5.6c-0.8-0.5-1.6-1.1-2.3-1.7
					c1,3,2.9,5.6,5.8,7.3c6.3,3.9,14.6,1.9,18.4-4.5C465.8,107.8,466.4,105,466.1,102.2z"/>
				<rect x="402.1" y="233.9" fill="#FFFFFF" width="2.5" height="59.8"/>
				<ellipse fill="#CF69A8" cx="431.3" cy="145.8" rx="40.5" ry="53.2"/>
				<path fill="#735590" d="M477.8,207.2c0.1,0.6,0.2,1.3,0.2,2c0,14.1-21.2,25.5-47.3,25.5c-26.1,0-47.3-11.4-47.3-25.5
					c0-0.7,0.1-1.3,0.2-2c-3.4-3.4-5.6-7.2-6.2-11.3c-0.1,0.7-0.2,1.5-0.2,2.3c0,4.9,2.3,9.6,6.4,13.7c-0.1,0.6-0.2,1.3-0.2,2
					c0,14.1,21.2,25.5,47.3,25.5c26.1,0,47.3-11.4,47.3-25.5c0-0.7-0.1-1.3-0.2-2c4.1-4.1,6.4-8.7,6.4-13.7c0-0.8-0.1-1.5-0.2-2.3
					C483.4,199.9,481.2,203.7,477.8,207.2z"/>
				<ellipse fill="#C5A593" cx="431.9" cy="160.1" rx="39" ry="62.4"/>
				<path fill="#C48B87" d="M431.9,218.8c-21.1,0-38.3-27-38.9-60.6c0,0.6,0,1.2,0,1.8c0,34.5,17.4,62.4,39,62.4
					c21.5,0,39-28,39-62.4c0-0.6,0-1.2,0-1.8C470.2,191.9,453,218.8,431.9,218.8z"/>
				<path fill="#735590" d="M433,226.9c-21,0-38.2-11-39.2-24.8c0,0.4,0,0.8,0,1.3c0,14.4,17.6,26,39.3,26s39.3-11.7,39.3-26
					c0-0.4,0-0.9,0-1.3C471.2,216,454,226.9,433,226.9z"/>
				<circle fill="#FFFFFF" cx="458.9" cy="269.2" r="4.1"/>
				<circle fill="#FFFFFF" cx="403.6" cy="296.9" r="4.1"/>
				
					<ellipse transform="matrix(0.9896 -0.1439 0.1439 0.9896 -19.0069 57.7444)" fill="#C5A592" cx="389.8" cy="160.3" rx="8.6" ry="16.2"/>
				
					<ellipse transform="matrix(0.9777 0.2102 -0.2102 0.9777 44.289 -96.034)" fill="#C5A592" cx="473.9" cy="160.3" rx="8.6" ry="16.2"/>
				<ellipse fill="#C48B87" cx="432" cy="170.9" rx="5.5" ry="11.1"/>
				<circle fill="#231F20" cx="410.2" cy="155.8" r="6.2"/>
				<circle fill="#231F20" cx="454.4" cy="155.8" r="6.2"/>
				<circle fill="#C5A592" cx="410.2" cy="161.4" r="6.2"/>
				<circle fill="#C5A592" cx="454.4" cy="161.4" r="6.2"/>
				<circle fill="#231F20" cx="389.4" cy="174.4" r="2.3"/>
				<circle fill="#231F20" cx="473.2" cy="174.4" r="2.3"/>
				<path fill="#FFFFFF" d="M428.4,198.3c-2.9,0-5.7-0.5-8.2-1.4c3.2,2.5,7.3,4,11.6,4c10.3,0,18.8-8.3,19-18.5
					C448.4,191.5,439.3,198.3,428.4,198.3z"/>
				<path fill="#CF69A8" d="M455.3,62c0.1,1.3,0.2,2.6,0.2,4c0,25.5-20.7,46.2-46.2,46.2c-2.6,0-5.2-0.2-7.7-0.6
					c6.4,5.6,14.8,8.9,24,8.9c20.3,0,36.8-16.5,36.8-36.8C462.4,75.6,459.8,68.1,455.3,62z"/>
				<path fill="#CF69A8" d="M441.9,68.9c0.1,1,0.1,2,0.1,3.1c0,19.7-14.5,35.7-32.4,35.7c-1.8,0-3.6-0.2-5.4-0.5
					c4.5,4.3,10.4,6.9,16.8,6.9c14.2,0,25.8-12.7,25.8-28.4C446.8,79.4,445,73.6,441.9,68.9z"/>
				<path fill="#CF69A8" d="M429,74.6c0.2,0.7,0.4,1.4,0.5,2.1c2.8,13.7-5,26.9-17.4,29.4c-1.3,0.3-2.5,0.4-3.8,0.4
					c3.7,2.3,8.2,3.3,12.7,2.4c9.9-2,16.1-12.5,13.9-23.4C433.9,81.2,431.8,77.4,429,74.6z"/>
				<path fill="#CF69A8" d="M396.1,95.3c0.3,0.2,0.7,0.4,1,0.7c6.1,4.5,7.8,12.6,3.8,18.2c-0.4,0.6-0.9,1.1-1.4,1.6
					c2.4-0.4,4.5-1.7,6-3.7c3.2-4.4,1.9-10.9-3-14.5C400.5,96.2,398.2,95.4,396.1,95.3z"/>
				
					<ellipse transform="matrix(-0.9404 0.34 -0.34 -0.9404 858.8842 60.5841)" fill="#CF69A8" cx="424.1" cy="105.5" rx="19.1" ry="10.4"/>
			</g>
		</g>
		<rect x="430.1" y="239.2" fill="#D0D2D3" width="4.2" height="111.2"/>
	</g>
	<g>
		<ellipse fill="#EFBEB3" cx="139.2" cy="290" rx="10.6" ry="24.2"/>
		<rect x="126.1" y="274.9" fill="#A30F14" width="27.2" height="15.1"/>
		<ellipse fill="#EFBEB3" cx="251.5" cy="290" rx="10.6" ry="24.2"/>
		<rect x="237.5" y="274.9" fill="#A30F14" width="27.2" height="15.1"/>
		<rect x="157.1" y="267.3" fill="#929497" width="25.3" height="147.4"/>
		<rect x="203.7" y="267.3" fill="#929497" width="25.3" height="147.4"/>
		<rect x="157.1" y="266.2" fill="#808184" width="25.3" height="25.8"/>
		<rect x="203.7" y="266.2" fill="#808184" width="25.3" height="25.8"/>
		<path fill="#DFA710" d="M228.9,143.3c3.7-12.3,5.8-26.6,5.8-41.9c0-45.8-19.1-83-42.6-83s-42.6,37.1-42.6,83
			c0,15.3,2.1,29.6,5.8,41.9H228.9z"/>
		<path fill="#E71E26" d="M242.1,132.6c0-16.2-22.3-29.2-49.8-29.2c-27.5,0-49.8,13.1-49.8,29.2c0,5,2.2,9.7,5.9,13.9
			c-0.1,0.7-0.1,1.3-0.1,2c0,14.3,19.7,25.8,44,25.8c24.3,0,44-11.6,44-25.8c0-0.7-0.1-1.3-0.1-2
			C239.9,142.3,242.1,137.6,242.1,132.6z"/>
		<path fill="#DFA710" d="M140.8,130.9c10.5,0.8,19.6-4.1,21.1-11.9c0.8-4.3-0.8-8.6-4.2-12.1C155.6,118,148.9,126.9,140.8,130.9z"
			/>
		<path fill="#E71E26" d="M194,115.1c-40.2,0-72.7,74.4-72.7,166.1h145.4C266.7,189.5,234.2,115.1,194,115.1z"/>
		<rect x="162.5" y="167.6" fill="#FFFFFF" width="2.5" height="36.9"/>
		<rect x="217.8" y="167.6" fill="#FFFFFF" width="2.5" height="36.9"/>
		<path fill="#A30F14" d="M236.1,141.8c0.1,0.7,0.1,1.3,0.1,2c0,14.3-19.7,25.8-44,25.8c-24.3,0-44-11.6-44-25.8
			c0-0.7,0.1-1.3,0.1-2c-3.2-3.5-5.2-7.4-5.8-11.5c-0.1,0.8-0.2,1.5-0.2,2.3c0,5,2.2,9.7,5.9,13.9c-0.1,0.7-0.1,1.3-0.1,2
			c0,14.3,19.7,25.8,44,25.8c24.3,0,44-11.6,44-25.8c0-0.7-0.1-1.3-0.1-2c3.8-4.1,5.9-8.8,5.9-13.9c0-0.8-0.1-1.5-0.2-2.3
			C241.3,134.4,239.3,138.3,236.1,141.8z"/>
		<ellipse fill="#EFBEB3" cx="192.2" cy="88.9" rx="36.3" ry="62.4"/>
		<path fill="#DB9B93" d="M192.2,147.6c-19.7,0-35.7-26.9-36.3-60.5c0,0.6,0,1.2,0,1.8c0,34.4,16.3,62.4,36.3,62.4
			c20.1,0,36.3-27.9,36.3-62.4c0-0.6,0-1.2,0-1.8C227.9,120.6,211.9,147.6,192.2,147.6z"/>
		<path fill="#A30F14" d="M193.1,161.9c-17,0-30.9-11.1-31.7-25.1c0,0.4,0,0.9,0,1.3c0,14.6,14.2,26.4,31.7,26.4
			c17.5,0,31.7-11.8,31.7-26.4c0-0.4,0-0.9,0-1.3C223.9,150.7,210.1,161.9,193.1,161.9z"/>
		<ellipse fill="#FFFFFF" cx="164" cy="208.4" rx="4.1" ry="5"/>
		<ellipse fill="#FFFFFF" cx="219.3" cy="208.4" rx="4.1" ry="5"/>
		<path fill="#EFBEB3" d="M238.9,87.9c-0.1,8.2-3.7,15-7.9,15.4c-4.3,0.3-7.6-6.1-7.5-14.2c0.1-8.2,3.7-15,7.9-15.3
			C235.7,73.4,239,79.8,238.9,87.9z"/>
		<path fill="#EFBEB3" d="M160.9,85.8c0.8,8.1-2,15.5-6.1,16.5c-4.2,1-8.2-4.8-9-12.9c-0.8-8.1,2-15.5,6.1-16.5
			C156.1,71.9,160.1,77.7,160.9,85.8z"/>
		<ellipse fill="#231F20" cx="172.2" cy="85.3" rx="6.2" ry="5.9"/>
		<ellipse fill="#231F20" cx="211.3" cy="85.3" rx="6.2" ry="5.9"/>
		<ellipse fill="#EFBEB3" cx="172.2" cy="91.4" rx="6.2" ry="5.9"/>
		<ellipse fill="#EFBEB3" cx="211.3" cy="91.4" rx="6.2" ry="5.9"/>
		<ellipse fill="#DB9B93" cx="192" cy="98.6" rx="9.2" ry="4.8"/>
		<path fill="#F6921E" d="M170.4,403.2c-10.6,0-19.2,10.4-19.2,23.2h38.3C189.5,413.6,181,403.2,170.4,403.2z"/>
		<path fill="#F6921E" d="M215.9,403.2c-10.6,0-19.2,10.4-19.2,23.2h38.3C235.1,413.6,226.5,403.2,215.9,403.2z"/>
		<rect x="151.2" y="426.4" fill="#D6E0F2" width="38.3" height="5.7"/>
		<rect x="196.7" y="426.4" fill="#D6E0F2" width="38.3" height="5.7"/>
		<rect x="190.6" y="173.2" fill="#D0D2D3" width="4.2" height="108"/>
		<circle fill="#EE9C9B" cx="192.2" cy="125.5" r="8"/>
		<path fill="#FFFFFF" d="M192.2,129.8c6.7,0,12.2-5.4,12.2-12.2H180C180,124.4,185.5,129.8,192.2,129.8z"/>
		<path fill="#EE9C9B" d="M206.1,118.1c0.5-0.2,0.8-0.4,0.8-0.6c0-0.8-3.6-1.4-8-1.4c-3,0-5.5,0.3-6.9,0.7c-1.4-0.4-4-0.7-6.9-0.7
			c-4.4,0-8,0.6-8,1.4c0,0.2,0.3,0.4,0.8,0.6c0.1,0.1,0.4,0.2,1,0.3c1.5,0.3,3.7,0.5,6.2,0.5c0.4,0,0.9,0,1.3,0
			c1.7,0,3.6,0.1,5.6,0.1c2,0,3.9,0,5.6-0.1c0.4,0,0.8,0,1.3,0c2.5,0,4.7-0.2,6.2-0.5C205.7,118.3,206,118.2,206.1,118.1z"/>
		
			<ellipse transform="matrix(-0.6341 -0.7732 0.7732 -0.6341 287.3907 234.4964)" fill="#DFA710" cx="199.2" cy="49.3" rx="28.8" ry="19.4"/>
		
			<ellipse transform="matrix(-0.6341 -0.7732 0.7732 -0.6341 310.5254 262.7812)" fill="#DFA710" cx="217.4" cy="57.9" rx="11.6" ry="7.8"/>
		<path fill="#DFA710" d="M211.3,66.2c-12.2,0-22.3-9.4-24.3-21.8c-0.2,1.5-0.4,3-0.4,4.6c0,14.6,11.1,26.4,24.7,26.4
			c13.6,0,24.7-11.8,24.7-26.4c0-1.6-0.1-3.1-0.4-4.6C233.6,56.7,223.5,66.2,211.3,66.2z"/>
		
			<ellipse transform="matrix(0.7522 0.659 -0.659 0.7522 69.6603 -102.9462)" fill="#DFA710" cx="171.7" cy="41.1" rx="4.8" ry="13.9"/>
	</g>
	<g>
		<rect x="43.2" y="323" fill="#3A4D80" width="35.1" height="116.2"/>
		<rect x="107.7" y="323" fill="#3A4D80" width="35.1" height="116.2"/>
		<rect x="43.2" y="322.1" fill="#2E3E6B" width="35.1" height="21.4"/>
		<rect x="107.7" y="322.1" fill="#2E3E6B" width="35.1" height="21.4"/>
		<ellipse fill="#69330D" cx="18.6" cy="341.8" rx="10.6" ry="20.1"/>
		<rect x="5.5" y="329.3" fill="#41973A" width="27.2" height="12.5"/>
		<ellipse fill="#69330D" cx="165" cy="341.8" rx="10.6" ry="20.1"/>
		<rect x="151" y="329.3" fill="#41973A" width="27.2" height="12.5"/>
		<g>
			<path fill="#54B848" d="M150.3,204.9c0-15.9-26.5-28.8-59.2-28.8S31.9,189,31.9,204.9c0,4.9,2.6,9.6,7.1,13.7
				c-0.1,0.6-0.2,1.3-0.2,2c0,14.1,23.4,25.5,52.3,25.5s52.3-11.4,52.3-25.5c0-0.7-0.1-1.3-0.2-2
				C147.8,214.5,150.3,209.8,150.3,204.9z"/>
			<path fill="#54B848" d="M92,197c-50.2,0-91,61.6-91,137.6H183C183,258.6,142.2,197,92,197z"/>
			<rect x="62.4" y="240.5" fill="#FFFFFF" width="2.5" height="30.6"/>
			<rect x="117.7" y="240.5" fill="#FFFFFF" width="2.5" height="30.6"/>
			<circle fill="#231F20" cx="92.6" cy="159.6" r="45.1"/>
			<path fill="#41973A" d="M143.3,213.9c0.1,0.6,0.2,1.3,0.2,2c0,14.1-23.4,25.5-52.3,25.5S38.8,230,38.8,215.9c0-0.7,0.1-1.3,0.2-2
				c-3.8-3.4-6.2-7.2-6.9-11.3c-0.1,0.7-0.2,1.5-0.2,2.3c0,4.9,2.6,9.6,7.1,13.7c-0.1,0.6-0.2,1.3-0.2,2c0,14.1,23.4,25.5,52.3,25.5
				s52.3-11.4,52.3-25.5c0-0.7-0.1-1.3-0.2-2c4.5-4.1,7.1-8.7,7.1-13.7c0-0.8-0.1-1.5-0.2-2.3C149.5,206.7,147,210.5,143.3,213.9z"
				/>
			<ellipse fill="#69330D" cx="92.6" cy="175.2" rx="45.1" ry="51.7"/>
			<path fill="#561F00" d="M92.6,223.8c-24.4,0-44.3-22.3-45-50.1c0,0.5,0,1,0,1.5c0,28.5,20.2,51.7,45.1,51.7s45.1-23.1,45.1-51.7
				c0-0.5,0-1,0-1.5C137,201.5,117.1,223.8,92.6,223.8z"/>
			<path fill="#41973A" d="M92,233.7c-20.2,0-36.7-11-37.7-24.8c0,0.4,0,0.8,0,1.3c0,14.4,16.9,26,37.7,26c20.8,0,37.7-11.7,37.7-26
				c0-0.4,0-0.9,0-1.3C128.8,222.7,112.2,233.7,92,233.7z"/>
			<circle fill="#FFFFFF" cx="64" cy="274.2" r="4.1"/>
			<circle fill="#FFFFFF" cx="119.2" cy="274.2" r="4.1"/>
			<path fill="#69330D" d="M150.7,171.2c-0.2,8.5-4.6,15.6-9.9,15.9c-5.3,0.3-9.5-6.3-9.4-14.8c0.2-8.5,4.6-15.6,9.9-15.9
				C146.6,156.1,150.8,162.7,150.7,171.2z"/>
			<path fill="#69330D" d="M52.9,169c1,8.4-2.4,16.1-7.7,17.1c-5.2,1-10.3-4.9-11.3-13.4c-1-8.4,2.5-16.1,7.7-17.1
				C46.8,154.6,51.9,160.6,52.9,169z"/>
			<circle fill="#6D6E70" cx="70.7" cy="164.1" r="19.5"/>
			<circle fill="#6D6E70" cx="113" cy="164.1" r="19.5"/>
			<circle fill="#FFFFFF" cx="70.8" cy="164.2" r="17.7"/>
			<circle fill="#FFFFFF" cx="112.9" cy="164.2" r="17.7"/>
			<rect x="88.5" y="160.5" fill="#6D6E70" width="6.8" height="4.6"/>
			<circle fill="#231F20" cx="72.2" cy="162.9" r="6.2"/>
			<circle fill="#231F20" cx="111.3" cy="162.9" r="6.2"/>
			<circle fill="#FFFFFF" cx="72.2" cy="169.3" r="6.2"/>
			<circle fill="#FFFFFF" cx="111.3" cy="169.3" r="6.2"/>
			<ellipse fill="#561F00" cx="92" cy="176.6" rx="9.2" ry="8"/>
			<path fill="#FFFFFF" d="M71.9,191.4c3.7,7.4,11.3,12.4,20.2,12.4s16.4-5.1,20.2-12.4H71.9z"/>
		</g>
		<path fill="#D71921" d="M59.9,425.6c-15,0-27.1,12.2-27.1,27.1H87C87,437.8,74.9,425.6,59.9,425.6z"/>
		<path fill="#D71921" d="M124.3,425.6c-15,0-27.1,12.2-27.1,27.1h54.3C151.5,437.8,139.3,425.6,124.3,425.6z"/>
		<path fill="#FFFFFF" d="M60.6,432.5c-11.4,0-20.7,9.3-20.7,20.7h41.4C81.3,441.8,72,432.5,60.6,432.5z"/>
		<path fill="#FFFFFF" d="M124.3,433.4c-11.4,0-20.7,9.3-20.7,20.7H145C145,442.7,135.8,433.4,124.3,433.4z"/>
		<rect x="32.7" y="452.7" fill="#D6E0F2" width="54.3" height="6.7"/>
		<rect x="97.2" y="452.7" fill="#D6E0F2" width="54.3" height="6.7"/>
		<rect x="90.5" y="245" fill="#D0D2D3" width="4.2" height="89.4"/>
	</g>
	<g>
		<ellipse fill="#3E3E3F" cx="219.8" cy="212.9" rx="7.5" ry="15.4"/>
		<ellipse fill="#3E3E3F" cx="303.6" cy="212.9" rx="7.5" ry="15.4"/>
		<rect x="217.9" y="366.5" fill="#EAC17D" width="35.1" height="102.7"/>
		<rect x="245" y="366.5" fill="#EAC17D" width="58.6" height="102.7"/>
		<rect x="217.9" y="365.7" fill="#D3AF71" width="85.7" height="18.9"/>
		<ellipse fill="#C3996B" cx="316.6" cy="380.4" rx="8" ry="13.5"/>
		<ellipse fill="#C3996B" cx="207" cy="380.4" rx="8" ry="13.5"/>
		<g>
			<path fill="#00ADEE" d="M235,457.2c-12.2,0-22.1,8.7-22.1,19.5h44.1C257.1,466,247.2,457.2,235,457.2z"/>
			<path fill="#00ADEE" d="M287.4,457.2c-12.2,0-22.1,8.7-22.1,19.5h44.1C309.5,466,299.6,457.2,287.4,457.2z"/>
			<path fill="#FFFFFF" d="M235.6,462.2c-9.3,0-16.8,6.7-16.8,14.9h33.7C252.4,468.9,244.9,462.2,235.6,462.2z"/>
			<path fill="#FFFFFF" d="M287.4,462.9c-9.3,0-16.8,6.7-16.8,14.9h33.7C304.2,469.5,296.7,462.9,287.4,462.9z"/>
			<rect x="212.9" y="476.8" fill="#D6E0F2" width="44.1" height="4.8"/>
			<rect x="265.3" y="476.8" fill="#D6E0F2" width="44.1" height="4.8"/>
		</g>
		<rect x="197" y="374.4" fill="#BF8229" width="18.9" height="9.5"/>
		<rect x="307.5" y="374.4" fill="#BF8229" width="18.9" height="9.5"/>
		<path fill="#CA974D" d="M261.7,237.4c-37,0-66.9,63.4-66.9,141.6h133.9C328.7,300.8,298.7,237.4,261.7,237.4z"/>
		<rect x="287" y="276" fill="#FFFFFF" width="2.5" height="28.4"/>
		<rect x="231.8" y="276" fill="#FFFFFF" width="2.5" height="52.9"/>
		<path fill="#231F20" d="M262,297.7c19.6,0,36.7-8,46.5-20.1c-12.1-24.9-28.6-40.3-46.8-40.3c-18.1,0-34.5,15.2-46.5,39.8
			C224.9,289.5,242.2,297.7,262,297.7z"/>
		<ellipse fill="#3E3E3F" cx="261.4" cy="210.9" rx="43.4" ry="60.8"/>
		<ellipse fill="#C3996B" cx="261.6" cy="210.7" rx="39" ry="55.2"/>
		<g>
			<path fill="#231F20" d="M261.6,182.7c22,0,39.9,13.7,40.7,30.9c0-0.7,0-1.4,0-2.1c0-31.9-18.2-57.7-40.7-57.7
				c-22.5,0-40.7,25.8-40.7,57.7c0,0.7,0,1.4,0,2.1C221.7,196.5,239.6,182.7,261.6,182.7z"/>
		</g>
		<ellipse fill="#FFFFFF" cx="288.6" cy="307.2" rx="4.1" ry="3.6"/>
		<ellipse fill="#FFFFFF" cx="233.3" cy="331.7" rx="4.1" ry="3.6"/>
		<path fill="#A87C4F" d="M261.6,262.7c-21.1,0-38.3-23.8-38.9-53.6c0,0.5,0,1.1,0,1.6c0,30.5,17.4,55.2,39,55.2
			c21.5,0,39-24.7,39-55.2c0-0.5,0-1.1,0-1.6C299.9,238.8,282.8,262.7,261.6,262.7z"/>
		<ellipse fill="#A87C4F" cx="260.8" cy="221.2" rx="5.5" ry="7.1"/>
		<ellipse fill="#231F20" cx="239.9" cy="207" rx="6.2" ry="5.5"/>
		<ellipse fill="#231F20" cx="284.1" cy="207" rx="6.2" ry="5.5"/>
		<ellipse fill="#C3996B" cx="239.9" cy="211.9" rx="6.2" ry="5.5"/>
		<ellipse fill="#C3996B" cx="284.1" cy="211.9" rx="6.2" ry="5.5"/>
		<rect x="259.8" y="297.7" fill="#D0D2D3" width="4.2" height="81.3"/>
		<path fill="#3E3E3F" d="M261.9,283.7c-15.7,0-28.6-8.8-30.3-20.2c-0.1,0.8-0.2,1.6-0.2,2.4c0,12.5,13.6,22.6,30.4,22.6
			s30.4-10.1,30.4-22.6c0-0.8-0.1-1.6-0.2-2.4C290.5,274.8,277.6,283.7,261.9,283.7z"/>
		<path fill="#FFFFFF" d="M261.9,245.2c6.1,0,11-4.9,11-11h-22.1C250.8,240.3,255.8,245.2,261.9,245.2z"/>
	</g>
</g>
</svg>
