<?xml version="1.0" encoding="utf-8"?>
<!-- Generator: Adobe Illustrator 18.1.1, SVG Export Plug-In . SVG Version: 6.00 Build 0)  -->
<svg version="1.1" id="wordmark" xmlns="http://www.w3.org/2000/svg" xmlns:xlink="http://www.w3.org/1999/xlink" x="0px" y="0px"
	 viewBox="0 0 500 185.7" enable-background="new 0 0 500 185.7" xml:space="preserve">
<g id="mark">
	<circle fill="#ECEAE7" cx="238.9" cy="88.2" r="45"/>
	<path fill="#ECEAE7" d="M200.7,99.1c13.4-13.4,33.5-15.9,49.5-7.6c-0.7-0.8-1.4-1.7-2.2-2.4c-14.5-14.5-38.1-14.5-52.6,0
		c-11.6,11.6-13.9,29.1-6.9,43C187.5,120.2,191.6,108.1,200.7,99.1z"/>
	<path fill="#ECEAE7" d="M206.3,78.6c13.8,0.7,25.1,10.3,28.5,23.1c0.1-0.8,0.2-1.6,0.2-2.4c0.7-15-10.8-27.8-25.9-28.5
		c-12-0.6-22.6,6.7-26.7,17.4C188.4,81.8,197,78.1,206.3,78.6z"/>
	<path fill="#ECEAE7" d="M199,89.4c13.8-3.9,27.9,1.9,35.4,13.2c-0.2-0.8-0.3-1.6-0.6-2.4c-4.2-14.9-19.7-23.6-34.6-19.4
		c-11.9,3.4-19.9,14-20.4,25.7C182.6,98.4,189.8,92,199,89.4z"/>
	<path fill="#D5D5D5" d="M277.1,107.6c-7.9,12.8-22.1,21.2-38.2,21.2c-24.1,0-43.8-19-44.9-42.8c0,0.7-0.1,1.4-0.1,2.2
		c0,24.8,20.1,45,45,45c17.1,0,32-9.6,39.6-23.6L277.1,107.6z"/>
	<path fill="#ECEAE7" d="M267.4,111.2c11.5,15.3,8.5,37.1-6.8,48.7c-15.3,11.6-37.1,8.5-48.7-6.8c-0.1-0.1-0.1-0.2-0.2-0.3
		l-12.4,9.3c16.7,22.2,48.2,26.6,70.3,9.9c22.2-16.7,26.6-48.2,9.9-70.3l-12.4,9.3C267.2,111.1,267.3,111.1,267.4,111.2z"/>
	<path fill="#D5D5D5" d="M279.5,101.7l-0.3,0.2c15.3,22,10.5,52.4-11.1,68.7c-20,15-47.5,12.9-65-3.8c17.4,18.1,45.9,20.7,66.4,5.3
		C291.8,155.3,296.2,123.8,279.5,101.7z"/>
	<path fill="#D5D5D5" d="M211.9,153.1c-0.1-0.1-0.1-0.2-0.2-0.3l-9.1,6.8c2.1,6.6,7.9,11.3,14.8,11.3c4.6,0,8.8-2.2,11.7-5.6
		C222.4,163.1,216.4,159,211.9,153.1z"/>
	<ellipse fill="#ECEAE7" cx="212.6" cy="153.1" rx="15.7" ry="16.8"/>
	<path fill="#D3863C" d="M226.5,145.3c0,0,8,10.6,18,9.4c10-1.2,11.9,5.9-18,6.1c0,0-4.5,0-2.2-7.8
		C226.5,145.3,224.1,144.8,226.5,145.3z"/>
	<path fill="#B57432" d="M226.5,159.9c0,0-2.6,0-2.9-3.5c-0.2,4.5,2.9,4.5,2.9,4.5c19.8-0.1,25.7-3.3,24.5-5.1
		C249.9,157.5,243.1,159.8,226.5,159.9z"/>
	<path fill="#B57432" d="M225.3,145.7c0,0.1,0,0.1,0,0.2C225.3,145.8,225.3,145.7,225.3,145.7z"/>
	<circle fill="#D5D5D5" cx="217.3" cy="147.1" r="3.4"/>
	<circle fill="#231F20" cx="217.6" cy="147.4" r="2.3"/>
	<path fill="#ECEAE7" d="M194.6,141.6c0.7-0.7,1.6-1.2,2.6-1.5c3.3-1,6.8,0.9,7.8,4.2c0.9,3.1-0.6,6.3-3.5,7.6
		c0.3,0,0.5-0.1,0.8-0.2c3.6-1.1,5.7-4.9,4.6-8.5c-1.1-3.6-4.9-5.7-8.5-4.6C196.8,139.1,195.5,140.2,194.6,141.6z"/>
	<path fill="#ECEAE7" d="M199.3,137.5c0.9-0.4,1.9-0.5,3-0.4c3.5,0.4,5.9,3.5,5.6,7c-0.4,3.2-3,5.5-6.2,5.6c0.3,0.1,0.5,0.1,0.8,0.2
		c3.7,0.4,7.1-2.3,7.5-6c0.4-3.7-2.3-7.1-6-7.5C202.3,136.1,200.6,136.6,199.3,137.5z"/>
	<circle fill="#ECEAE7" cx="217.3" cy="152.6" r="4.6"/>
	<path fill="#BA7834" d="M256.8,22.4c-1.6-1-20.5-10.7-20.5-10.7l3,19.2L256.8,22.4z"/>
	<polygon fill="#A0672B" points="256.8,22.4 244.5,24.8 246.5,17 241.3,23.2 236.2,11.7 	"/>
	
		<rect x="236.7" y="25.9" transform="matrix(-0.8867 -0.4624 0.4624 -0.8867 434.5009 171.9153)" fill="#BA7834" width="3.2" height="13.7"/>
	<path fill="#ECEAE7" d="M240.8,35.9c-4.5,6.6-3.9,15.7,2,21.6c5.9,5.9,15,6.5,21.6,2l4.7,4.7c-9.2,7.1-22.5,6.4-31-2.1
		c-8.5-8.5-9.1-21.7-2.1-31L240.8,35.9z"/>
	<path fill="#BA7834" d="M275,39.2c-0.9-1.5-12.9-16.8-12.9-16.8l-4.9,17.1L275,39.2z"/>
	<polygon fill="#A0672B" points="275,39.2 263.9,36.5 268.5,30.8 261.9,33.9 262.1,22.4 	"/>
	
		<rect x="254.2" y="34.4" transform="matrix(-0.6109 -0.7917 0.7917 -0.6109 379.702 268.0276)" fill="#BA7834" width="3" height="12.5"/>
	<path fill="#ECEAE7" d="M256.5,44.3c-6.3,3.8-9.3,11.6-6.6,18.7c2.6,7.1,9.9,11.2,17.2,10l2.1,5.7c-10.4,2.3-21.2-3.3-25-13.6
		c-3.8-10.3,0.8-21.6,10.2-26.5L256.5,44.3z"/>
</g>
<g id="word">
	<path fill="#62BECA" d="M9.9,97.5c0-5.1,0.9-9.8,2.7-14.1c1.8-4.4,4.2-8.2,7.3-11.4c3.1-3.2,6.7-5.7,10.9-7.5
		c4.2-1.8,8.6-2.7,13.3-2.7c3.6,0,6.7,0.5,9.5,1.4c2.7,0.9,5,2,6.9,3.2c1.8,1.2,3.3,2.3,4.3,3.3c1,1.1,1.6,1.7,1.8,1.9
		c0-1.2,0.1-2.4,0.3-3.8c0.2-1.4,0.3-2.8,0.3-4.3h14.5v63.6c0,5.7-0.9,10.8-2.7,15.2c-1.8,4.5-4.3,8.2-7.5,11.2
		c-3.2,3-7.1,5.3-11.5,6.9c-4.5,1.6-9.4,2.4-14.8,2.4c-4.1,0-7.7-0.4-10.8-1.3c-3.1-0.8-5.9-1.9-8.4-3.3c-2.5-1.4-4.7-2.9-6.8-4.6
		c-2.1-1.7-4-3.4-5.9-5l9.8-10.3c2.9,2.7,6.1,5.1,9.5,7c3.4,1.9,7.5,2.9,12.3,2.9c6.5,0,11.7-1.6,15.6-4.7c3.9-3.2,5.8-7.6,5.8-13.4
		c0-0.5,0-1.1,0-1.8c0-0.7,0.1-1.4,0.2-2.1c0-0.9,0.1-1.8,0.3-2.5c0.2-0.7,0.3-1.4,0.3-1.9c-0.9,1.1-2.1,2.2-3.4,3.5
		c-1.3,1.3-2.9,2.4-4.7,3.5c-1.8,1.1-4,1.9-6.4,2.6c-2.4,0.7-5.2,1-8.4,1c-5,0-9.7-0.9-13.9-2.7c-4.2-1.8-7.8-4.3-10.9-7.4
		c-3.1-3.2-5.4-6.8-7.1-11C10.8,107,9.9,102.5,9.9,97.5z M25.1,96.9c0,2.9,0.5,5.7,1.5,8.2c1,2.5,2.4,4.7,4.3,6.5
		c1.8,1.8,4,3.3,6.5,4.3c2.5,1.1,5.3,1.6,8.4,1.6s5.9-0.5,8.4-1.6c2.6-1.1,4.8-2.5,6.6-4.4c1.8-1.9,3.3-4.1,4.3-6.6
		c1-2.5,1.5-5.2,1.5-8s-0.5-5.5-1.5-8c-1-2.5-2.4-4.6-4.3-6.4c-1.8-1.8-4.1-3.2-6.6-4.3c-2.6-1.1-5.4-1.6-8.4-1.6s-5.8,0.5-8.4,1.5
		c-2.5,1-4.7,2.4-6.5,4.3c-1.8,1.8-3.3,4-4.3,6.5C25.6,91.4,25.1,94,25.1,96.9z"/>
	<path fill="#62BECA" d="M96.1,97.8c0-4.8,0.9-9.4,2.8-13.8c1.9-4.4,4.4-8.2,7.7-11.4c3.2-3.3,6.9-5.9,11.2-7.8
		c4.3-1.9,8.8-2.9,13.5-2.9c3.2,0,6,0.4,8.5,1.2c2.5,0.8,4.7,1.7,6.5,2.8c1.8,1.1,3.3,2.1,4.3,3.2c1.1,1.1,1.7,2,2.1,2.6l0.6-8H168
		v67.1h-15.3v-4.4c0-0.5,0-1,0.1-1.5c0.1-0.5,0.1-0.8,0.1-1c-0.4,0.5-1.2,1.3-2.2,2.3c-1.1,1-2.5,2-4.3,2.9
		c-1.8,0.9-3.9,1.8-6.4,2.4c-2.5,0.7-5.3,1-8.6,1c-5.2,0-9.9-0.9-14.2-2.8c-4.3-1.9-8-4.4-11.2-7.6c-3.2-3.2-5.6-6.8-7.3-11
		C96.9,106.9,96.1,102.5,96.1,97.8z M111.4,96.9c0,2.9,0.5,5.7,1.5,8.2c1,2.5,2.4,4.7,4.3,6.5c1.8,1.8,4,3.3,6.5,4.3
		c2.5,1.1,5.3,1.6,8.4,1.6s5.8-0.5,8.4-1.6c2.5-1.1,4.7-2.5,6.5-4.4c1.8-1.9,3.3-4.1,4.3-6.6c1-2.5,1.5-5.2,1.5-8s-0.5-5.5-1.5-8
		c-1-2.5-2.4-4.6-4.3-6.4c-1.8-1.8-4-3.2-6.5-4.3c-2.5-1.1-5.3-1.6-8.4-1.6s-5.8,0.5-8.4,1.5c-2.5,1-4.7,2.4-6.5,4.3
		c-1.8,1.8-3.3,4-4.3,6.5C111.9,91.4,111.4,94,111.4,96.9z"/>
	<path fill="#62BECA" d="M303.3,97.5c0-5.1,0.9-9.8,2.7-14.1c1.8-4.4,4.2-8.2,7.3-11.4c3.1-3.2,6.7-5.7,10.9-7.5
		c4.2-1.8,8.6-2.7,13.3-2.7c3.6,0,6.7,0.5,9.5,1.4c2.7,0.9,5,2,6.9,3.2c1.8,1.2,3.3,2.3,4.3,3.3c1,1.1,1.6,1.7,1.8,1.9
		c0-1.2,0.1-2.4,0.3-3.8c0.2-1.4,0.3-2.8,0.3-4.3h14.5v63.6c0,5.7-0.9,10.8-2.7,15.2c-1.8,4.5-4.3,8.2-7.5,11.2
		c-3.2,3-7.1,5.3-11.5,6.9c-4.5,1.6-9.4,2.4-14.8,2.4c-4.1,0-7.7-0.4-10.8-1.3c-3.1-0.8-5.9-1.9-8.4-3.3c-2.5-1.4-4.7-2.9-6.8-4.6
		c-2.1-1.7-4-3.4-5.9-5l9.8-10.3c2.9,2.7,6.1,5.1,9.5,7c3.4,1.9,7.5,2.9,12.3,2.9c6.5,0,11.7-1.6,15.6-4.7c3.9-3.2,5.8-7.6,5.8-13.4
		c0-0.5,0-1.1,0-1.8c0-0.7,0.1-1.4,0.2-2.1c0-0.9,0.1-1.8,0.3-2.5c0.2-0.7,0.3-1.4,0.3-1.9c-0.9,1.1-2.1,2.2-3.4,3.5
		c-1.3,1.3-2.9,2.4-4.7,3.5c-1.8,1.1-4,1.9-6.4,2.6c-2.4,0.7-5.2,1-8.4,1c-5,0-9.7-0.9-13.9-2.7c-4.2-1.8-7.8-4.3-10.9-7.4
		c-3.1-3.2-5.4-6.8-7.1-11C304.1,107,303.3,102.5,303.3,97.5z M318.5,96.9c0,2.9,0.5,5.7,1.5,8.2c1,2.5,2.4,4.7,4.3,6.5
		c1.8,1.8,4,3.3,6.5,4.3c2.5,1.1,5.3,1.6,8.4,1.6s5.9-0.5,8.4-1.6c2.6-1.1,4.8-2.5,6.6-4.4c1.8-1.9,3.3-4.1,4.3-6.6
		c1-2.5,1.5-5.2,1.5-8s-0.5-5.5-1.5-8c-1-2.5-2.4-4.6-4.3-6.4c-1.8-1.8-4.1-3.2-6.6-4.3c-2.6-1.1-5.4-1.6-8.4-1.6s-5.8,0.5-8.4,1.5
		c-2.5,1-4.7,2.4-6.5,4.3c-1.8,1.8-3.3,4-4.3,6.5C319,91.4,318.5,94,318.5,96.9z"/>
	<path fill="#62BECA" d="M408.7,130.7h-15V7.4h15V130.7z"/>
	<path fill="#62BECA" d="M484.9,122.9c-3.3,2.9-7.2,5.3-11.8,6.9c-4.6,1.7-9.4,2.5-14.2,2.5c-4.9,0-9.6-0.9-14-2.8
		c-4.4-1.8-8.2-4.4-11.4-7.6c-3.2-3.2-5.8-6.9-7.7-11.2c-1.9-4.3-2.8-8.8-2.8-13.7c0-4.8,0.9-9.4,2.8-13.6c1.9-4.3,4.4-8,7.7-11.2
		c3.2-3.2,6.9-5.7,11.2-7.6c4.3-1.8,8.8-2.8,13.5-2.8c7.6,0,14.2,2.3,20,6.9c5.7,4.6,9.8,10.6,12.2,18.1c-3.2,1.2-6.8,2.6-11,4.2
		c-4.2,1.6-8.5,3.3-13,5.1c-4.5,1.8-9,3.6-13.6,5.4c-4.5,1.8-8.7,3.5-12.5,5c1.8,3.3,4.3,5.9,7.4,7.9c3.2,2,6.7,3,10.7,3
		c2.7,0,5.5-0.5,8.3-1.5c2.8-1,5.1-2.3,6.9-4L484.9,122.9z M471.7,83.5c-1.3-2.3-3.2-4-5.7-5.1c-2.5-1.1-5-1.7-7.4-1.7
		c-2.8,0-5.5,0.6-8,1.7c-2.5,1.1-4.7,2.6-6.5,4.4c-1.8,1.8-3.2,3.9-4.3,6.3c-1.1,2.4-1.6,4.8-1.6,7.3V97c2.6-1.1,5.4-2.2,8.4-3.4
		c3-1.2,6-2.4,9-3.7c3-1.3,5.9-2.4,8.6-3.6C467,85.3,469.5,84.3,471.7,83.5z"/>
</g>
</svg>
