<?xml version="1.0" encoding="utf-8"?>
<!-- Generator: Adobe Illustrator 18.1.1, SVG Export Plug-In . SVG Version: 6.00 Build 0)  -->
<svg version="1.1" id="wordmark" xmlns="http://www.w3.org/2000/svg" xmlns:xlink="http://www.w3.org/1999/xlink" x="0px" y="0px"
	 viewBox="0 154 500 192" enable-background="new 0 154 500 192" xml:space="preserve">
<g id="mark">
	<circle fill="#ECEAE7" cx="238.9" cy="245.3" r="45"/>
	<path fill="#ECEAE7" d="M200.7,256.2c13.4-13.4,33.5-15.9,49.5-7.6c-0.7-0.8-1.4-1.7-2.2-2.4c-14.5-14.5-38.1-14.5-52.6,0
		c-11.6,11.6-13.9,29.1-6.9,43C187.5,277.3,191.6,265.2,200.7,256.2z"/>
	<path fill="#ECEAE7" d="M206.3,235.8c13.8,0.7,25.1,10.3,28.5,23.1c0.1-0.8,0.2-1.6,0.2-2.4c0.7-15-10.8-27.8-25.9-28.5
		c-12-0.6-22.6,6.7-26.7,17.4C188.4,238.9,197,235.2,206.3,235.8z"/>
	<path fill="#ECEAE7" d="M199,246.5c13.8-3.9,27.9,1.9,35.4,13.2c-0.2-0.8-0.3-1.6-0.6-2.4c-4.2-14.9-19.7-23.6-34.6-19.4
		c-11.9,3.4-19.9,14-20.4,25.7C182.6,255.5,189.8,249.1,199,246.5z"/>
	<path fill="#D5D5D5" d="M277.1,264.8c-7.9,12.8-22.1,21.2-38.2,21.2c-24.1,0-43.8-19-44.9-42.8c0,0.7-0.1,1.4-0.1,2.2
		c0,24.8,20.1,45,45,45c17.1,0,32-9.6,39.6-23.6L277.1,264.8z"/>
	<path fill="#ECEAE7" d="M267.4,268.3c11.5,15.3,8.5,37.1-6.8,48.7s-37.1,8.5-48.7-6.8c-0.1-0.1-0.1-0.2-0.2-0.3l-12.4,9.3
		c16.7,22.2,48.2,26.6,70.3,9.9c22.2-16.7,26.6-48.2,9.9-70.3l-12.4,9.3C267.2,268.2,267.3,268.2,267.4,268.3z"/>
	<path fill="#D5D5D5" d="M279.5,258.8l-0.3,0.2c15.3,22,10.5,52.4-11.1,68.7c-20,15-47.5,12.9-65-3.8c17.4,18.1,45.9,20.7,66.4,5.3
		C291.8,312.5,296.2,281,279.5,258.8z"/>
	<path fill="#D5D5D5" d="M211.9,310.2c-0.1-0.1-0.1-0.2-0.2-0.3l-9.1,6.8c2.1,6.6,7.9,11.3,14.8,11.3c4.6,0,8.8-2.2,11.7-5.6
		C222.4,320.2,216.4,316.1,211.9,310.2z"/>
	<ellipse fill="#ECEAE7" cx="212.6" cy="310.2" rx="15.7" ry="16.8"/>
	<path fill="#D3863C" d="M226.5,302.5c0,0,8,10.6,18,9.4s11.9,5.9-18,6.1c0,0-4.5,0-2.2-7.8C226.5,302.5,224.1,302,226.5,302.5z"/>
	<path fill="#B57432" d="M226.5,317c0,0-2.6,0-2.9-3.5c-0.2,4.5,2.9,4.5,2.9,4.5c19.8-0.1,25.7-3.3,24.5-5.1
		C249.9,314.6,243.1,317,226.5,317z"/>
	<path fill="#B57432" d="M225.3,302.8c0,0.1,0,0.1,0,0.2V302.8z"/>
	<circle fill="#D5D5D5" cx="217.3" cy="304.2" r="3.4"/>
	<circle fill="#231F20" cx="217.6" cy="304.5" r="2.3"/>
	<path fill="#ECEAE7" d="M194.6,298.8c0.7-0.7,1.6-1.2,2.6-1.5c3.3-1,6.8,0.9,7.8,4.2c0.9,3.1-0.6,6.3-3.5,7.6
		c0.3,0,0.5-0.1,0.8-0.2c3.6-1.1,5.7-4.9,4.6-8.5c-1.1-3.6-4.9-5.7-8.5-4.6C196.8,296.2,195.5,297.3,194.6,298.8z"/>
	<path fill="#ECEAE7" d="M199.3,294.6c0.9-0.4,1.9-0.5,3-0.4c3.5,0.4,5.9,3.5,5.6,7c-0.4,3.2-3,5.5-6.2,5.6c0.3,0.1,0.5,0.1,0.8,0.2
		c3.7,0.4,7.1-2.3,7.5-6s-2.3-7.1-6-7.5C202.3,293.2,200.6,293.8,199.3,294.6z"/>
	<circle fill="#ECEAE7" cx="217.3" cy="309.8" r="4.6"/>
	<path fill="#BA7834" d="M256.8,179.5c-1.6-1-20.5-10.7-20.5-10.7l3,19.2L256.8,179.5z"/>
	<polygon fill="#A0672B" points="256.8,179.5 244.5,181.9 246.5,174.1 241.3,180.3 236.2,168.8 	"/>
	
		<rect x="236.7" y="183" transform="matrix(-0.8867 -0.4624 0.4624 -0.8867 361.8206 468.3457)" fill="#BA7834" width="3.2" height="13.7"/>
	<path fill="#ECEAE7" d="M240.8,193c-4.5,6.6-3.9,15.7,2,21.6s15,6.5,21.6,2l4.7,4.7c-9.2,7.1-22.5,6.4-31-2.1s-9.1-21.7-2.1-31
		L240.8,193z"/>
	<path fill="#BA7834" d="M275,196.3c-0.9-1.5-12.9-16.8-12.9-16.8l-4.9,17.1L275,196.3z"/>
	<polygon fill="#A0672B" points="275,196.3 263.9,193.6 268.5,187.9 261.9,191 262.1,179.5 	"/>
	
		<rect x="254.2" y="191.7" transform="matrix(-0.6109 -0.7917 0.7917 -0.6109 255.1216 521.2817)" fill="#BA7834" width="3" height="12.5"/>
	<path fill="#ECEAE7" d="M256.5,201.4c-6.3,3.8-9.3,11.6-6.6,18.7c2.6,7.1,9.9,11.2,17.2,10l2.1,5.7c-10.4,2.3-21.2-3.3-25-13.6
		s0.8-21.6,10.2-26.5L256.5,201.4z"/>
</g>
<g id="word">
	<path fill="#CCA52C" d="M9.9,254.6c0-5.1,0.9-9.8,2.7-14.1c1.8-4.4,4.2-8.2,7.3-11.4s6.7-5.7,10.9-7.5s8.6-2.7,13.3-2.7
		c3.6,0,6.7,0.5,9.5,1.4c2.7,0.9,5,2,6.9,3.2c1.8,1.2,3.3,2.3,4.3,3.3c1,1.1,1.6,1.7,1.8,1.9c0-1.2,0.1-2.4,0.3-3.8
		c0.2-1.4,0.3-2.8,0.3-4.3h14.5v63.6c0,5.7-0.9,10.8-2.7,15.2c-1.8,4.5-4.3,8.2-7.5,11.2s-7.1,5.3-11.5,6.9
		c-4.5,1.6-9.4,2.4-14.8,2.4c-4.1,0-7.7-0.4-10.8-1.3c-3.1-0.8-5.9-1.9-8.4-3.3s-4.7-2.9-6.8-4.6s-4-3.4-5.9-5l9.8-10.3
		c2.9,2.7,6.1,5.1,9.5,7s7.5,2.9,12.3,2.9c6.5,0,11.7-1.6,15.6-4.7c3.9-3.2,5.8-7.6,5.8-13.4c0-0.5,0-1.1,0-1.8
		c0-0.7,0.1-1.4,0.2-2.1c0-0.9,0.1-1.8,0.3-2.5c0.2-0.7,0.3-1.4,0.3-1.9c-0.9,1.1-2.1,2.2-3.4,3.5c-1.3,1.3-2.9,2.4-4.7,3.5
		s-4,1.9-6.4,2.6s-5.2,1-8.4,1c-5,0-9.7-0.9-13.9-2.7s-7.8-4.3-10.9-7.4c-3.1-3.2-5.4-6.8-7.1-11C10.8,264.1,9.9,259.6,9.9,254.6z
		 M25.1,254c0,2.9,0.5,5.7,1.5,8.2s2.4,4.7,4.3,6.5c1.8,1.8,4,3.3,6.5,4.3c2.5,1.1,5.3,1.6,8.4,1.6s5.9-0.5,8.4-1.6
		c2.6-1.1,4.8-2.5,6.6-4.4s3.3-4.1,4.3-6.6s1.5-5.2,1.5-8c0-2.8-0.5-5.5-1.5-8s-2.4-4.6-4.3-6.4c-1.8-1.8-4.1-3.2-6.6-4.3
		c-2.6-1.1-5.4-1.6-8.4-1.6s-5.8,0.5-8.4,1.5c-2.5,1-4.7,2.4-6.5,4.3c-1.8,1.8-3.3,4-4.3,6.5C25.6,248.5,25.1,251.1,25.1,254z"/>
	<path fill="#CCA52C" d="M96.1,254.9c0-4.8,0.9-9.4,2.8-13.8s4.4-8.2,7.7-11.4c3.2-3.3,6.9-5.9,11.2-7.8c4.3-1.9,8.8-2.9,13.5-2.9
		c3.2,0,6,0.4,8.5,1.2s4.7,1.7,6.5,2.8s3.3,2.1,4.3,3.2c1.1,1.1,1.7,2,2.1,2.6l0.6-8H168v67.1h-15.3v-4.4c0-0.5,0-1,0.1-1.5
		s0.1-0.8,0.1-1c-0.4,0.5-1.2,1.3-2.2,2.3c-1.1,1-2.5,2-4.3,2.9s-3.9,1.8-6.4,2.4c-2.5,0.7-5.3,1-8.6,1c-5.2,0-9.9-0.9-14.2-2.8
		c-4.3-1.9-8-4.4-11.2-7.6s-5.6-6.8-7.3-11C96.9,264,96.1,259.6,96.1,254.9z M111.4,254c0,2.9,0.5,5.7,1.5,8.2s2.4,4.7,4.3,6.5
		c1.8,1.8,4,3.3,6.5,4.3c2.5,1.1,5.3,1.6,8.4,1.6s5.8-0.5,8.4-1.6c2.5-1.1,4.7-2.5,6.5-4.4s3.3-4.1,4.3-6.6s1.5-5.2,1.5-8
		c0-2.8-0.5-5.5-1.5-8s-2.4-4.6-4.3-6.4c-1.8-1.8-4-3.2-6.5-4.3s-5.3-1.6-8.4-1.6s-5.8,0.5-8.4,1.5c-2.5,1-4.7,2.4-6.5,4.3
		c-1.8,1.8-3.3,4-4.3,6.5S111.4,251.1,111.4,254z"/>
	<path fill="#CCA52C" d="M303.3,254.6c0-5.1,0.9-9.8,2.7-14.1c1.8-4.4,4.2-8.2,7.3-11.4c3.1-3.2,6.7-5.7,10.9-7.5
		c4.2-1.8,8.6-2.7,13.3-2.7c3.6,0,6.7,0.5,9.5,1.4c2.7,0.9,5,2,6.9,3.2c1.8,1.2,3.3,2.3,4.3,3.3c1,1.1,1.6,1.7,1.8,1.9
		c0-1.2,0.1-2.4,0.3-3.8c0.2-1.4,0.3-2.8,0.3-4.3h14.5v63.6c0,5.7-0.9,10.8-2.7,15.2c-1.8,4.5-4.3,8.2-7.5,11.2s-7.1,5.3-11.5,6.9
		c-4.5,1.6-9.4,2.4-14.8,2.4c-4.1,0-7.7-0.4-10.8-1.3c-3.1-0.8-5.9-1.9-8.4-3.3s-4.7-2.9-6.8-4.6c-2.1-1.7-4-3.4-5.9-5l9.8-10.3
		c2.9,2.7,6.1,5.1,9.5,7s7.5,2.9,12.3,2.9c6.5,0,11.7-1.6,15.6-4.7c3.9-3.2,5.8-7.6,5.8-13.4c0-0.5,0-1.1,0-1.8
		c0-0.7,0.1-1.4,0.2-2.1c0-0.9,0.1-1.8,0.3-2.5c0.2-0.7,0.3-1.4,0.3-1.9c-0.9,1.1-2.1,2.2-3.4,3.5s-2.9,2.4-4.7,3.5
		c-1.8,1.1-4,1.9-6.4,2.6s-5.2,1-8.4,1c-5,0-9.7-0.9-13.9-2.7c-4.2-1.8-7.8-4.3-10.9-7.4c-3.1-3.2-5.4-6.8-7.1-11
		C304.1,264.1,303.3,259.6,303.3,254.6z M318.5,254c0,2.9,0.5,5.7,1.5,8.2s2.4,4.7,4.3,6.5c1.8,1.8,4,3.3,6.5,4.3
		c2.5,1.1,5.3,1.6,8.4,1.6s5.9-0.5,8.4-1.6c2.6-1.1,4.8-2.5,6.6-4.4c1.8-1.9,3.3-4.1,4.3-6.6s1.5-5.2,1.5-8c0-2.8-0.5-5.5-1.5-8
		s-2.4-4.6-4.3-6.4c-1.8-1.8-4.1-3.2-6.6-4.3c-2.6-1.1-5.4-1.6-8.4-1.6s-5.8,0.5-8.4,1.5c-2.5,1-4.7,2.4-6.5,4.3
		c-1.8,1.8-3.3,4-4.3,6.5S318.5,251.1,318.5,254z"/>
	<path fill="#CCA52C" d="M408.7,287.8h-15V164.5h15V287.8z"/>
	<path fill="#CCA52C" d="M484.9,280c-3.3,2.9-7.2,5.3-11.8,6.9c-4.6,1.7-9.4,2.5-14.2,2.5c-4.9,0-9.6-0.9-14-2.8
		c-4.4-1.8-8.2-4.4-11.4-7.6c-3.2-3.2-5.8-6.9-7.7-11.2c-1.9-4.3-2.8-8.8-2.8-13.7c0-4.8,0.9-9.4,2.8-13.6c1.9-4.3,4.4-8,7.7-11.2
		c3.2-3.2,6.9-5.7,11.2-7.6c4.3-1.8,8.8-2.8,13.5-2.8c7.6,0,14.2,2.3,20,6.9c5.7,4.6,9.8,10.6,12.2,18.1c-3.2,1.2-6.8,2.6-11,4.2
		c-4.2,1.6-8.5,3.3-13,5.1s-9,3.6-13.6,5.4c-4.5,1.8-8.7,3.5-12.5,5c1.8,3.3,4.3,5.9,7.4,7.9c3.2,2,6.7,3,10.7,3
		c2.7,0,5.5-0.5,8.3-1.5s5.1-2.3,6.9-4L484.9,280z M471.7,240.6c-1.3-2.3-3.2-4-5.7-5.1s-5-1.7-7.4-1.7c-2.8,0-5.5,0.6-8,1.7
		c-2.5,1.1-4.7,2.6-6.5,4.4s-3.2,3.9-4.3,6.3c-1.1,2.4-1.6,4.8-1.6,7.3v0.6c2.6-1.1,5.4-2.2,8.4-3.4s6-2.4,9-3.7s5.9-2.4,8.6-3.6
		C467,242.4,469.5,241.4,471.7,240.6z"/>
</g>
</svg>
