<?xml version="1.0" encoding="utf-8"?>
<!-- Generator: Adobe Illustrator 18.1.1, SVG Export Plug-In . SVG Version: 6.00 Build 0)  -->
<svg version="1.1" id="Layer_1" xmlns="http://www.w3.org/2000/svg" xmlns:xlink="http://www.w3.org/1999/xlink" x="0px" y="0px"
	 viewBox="0 0 500 500" enable-background="new 0 0 500 500" xml:space="preserve">
<g>
	<ellipse fill="#00BAD6" cx="250" cy="339.8" rx="246.6" ry="31.7"/>
	<ellipse fill="#5BC8E0" cx="250" cy="338.1" rx="197" ry="25.3"/>
	<ellipse fill="#91D6E6" cx="250" cy="338.1" rx="130.1" ry="16.7"/>
	<ellipse fill="#CFECF3" cx="250" cy="337.3" rx="83.8" ry="10.8"/>
	<g>
		
			<ellipse transform="matrix(-0.9754 -0.2204 0.2204 -0.9754 707.4429 681.532)" fill="#ECEAE7" cx="391.7" cy="301.3" rx="68.7" ry="47.7"/>
		<path fill="#ECEAE7" d="M451.9,309.5c-24.5,15.4-55.3,12.5-76.3-5.3c0.8,1.5,1.6,3,2.5,4.4c16.8,26.5,51.9,34.5,78.4,17.7
			c21.3-13.4,30.6-38.6,24.8-61.7C478.6,282.5,468.4,299.1,451.9,309.5z"/>
		<path fill="#ECEAE7" d="M436.6,338.1c-20.4-5.7-33.9-23.9-34.6-44c-0.4,1.1-0.8,2.3-1.2,3.5c-6.2,22.1,6.8,45.1,28.9,51.2
			c17.7,4.9,35.9-2.4,45.7-16.9C464.4,339.3,450.4,342,436.6,338.1z"/>
		<path fill="#ECEAE7" d="M451.1,324.5c-21.8,1.1-41-12.2-48.2-31.6c0,1.3,0,2.5,0,3.8c1.2,23.6,21.4,41.8,45,40.6
			c18.9-1,34.3-14.1,39.1-31.4C478.6,316.5,465.8,323.7,451.1,324.5z"/>
		<path fill="#D5D5D5" d="M339.3,268.4c14.8-10.5,37.9-14.5,61.9-9.1c35.9,8.1,60.8,34.4,56.9,59.4c0.2-0.7,0.4-1.5,0.6-2.2
			c5.8-25.7-19.5-53.3-56.5-61.7c-25.5-5.8-49.9-0.9-64.5,11.1L339.3,268.4z"/>
		<path fill="#ECEAE7" d="M372.7,282c-3.4,0.1-6.8-0.3-10.2-1c-22.9-5.2-37.3-28-32.2-50.9c2.7-12,10.2-21.6,20-27.4
			c-1.8-6.2-3.5-12-5-16.9c-15.6,7.7-27.8,22.2-31.9,40.5c-7.3,32.3,13,64.3,45.2,71.6c6.3,1.4,12.6,1.8,18.8,1.2
			C376.5,295.6,374.8,289.6,372.7,282z"/>
		<path fill="#D5D5D5" d="M328,209.3c5,1.1,10,0.7,14.6-0.8c2.3-2.2,4.9-4.2,7.7-5.8c-1.8-6.2-3.5-12-5-16.9
			c-9.6,4.7-17.9,12-23.8,21.2C323.5,208,325.7,208.8,328,209.3z"/>
		
			<ellipse transform="matrix(-0.9754 -0.2204 0.2204 -0.9754 631.2813 432.0085)" fill="#ECEAE7" cx="339.7" cy="180.8" rx="23.9" ry="25.7"/>
		<path fill="#D3863C" d="M321.6,164.6c0,0-15.4,13.1-30,8c-14.6-5.2-19.7,4.8,24.8,15.1c0,0,6.7,1.5,5.9-10.8
			C321.6,164.6,325.3,164.6,321.6,164.6z"/>
		<path fill="#D3863C" d="M319,194.6c0,0-9-5.8-18.7-3.3c-9.7,2.5-12.3-2,16.9-7.1c0,0,4.4-0.8,3.1,4.8
			C319,194.6,321.4,194.5,319,194.6z"/>
		<g>
			<path fill="#B57432" d="M316.7,186.2c0,0,3.9,0.9,5.4-4.3c-1.1,6.7-5.8,5.7-5.8,5.7c-29.5-6.8-37.2-13.5-34.8-15.8
				C282.7,174.9,292.1,180.5,316.7,186.2z"/>
			<path fill="#B57432" d="M323.2,165.4c0,0.1,0,0.2-0.1,0.3C323.2,165.7,323.2,165.5,323.2,165.4z"/>
		</g>
		<circle fill="#D5D5D5" cx="334.7" cy="170.3" r="5.3"/>
		<circle fill="#231F20" cx="334.1" cy="170.7" r="3.5"/>
		<path fill="#ECEAE7" d="M370.3,169.7c-0.8-1.3-1.9-2.3-3.3-3.1c-4.6-2.6-10.5-1-13.1,3.7c-2.4,4.3-1.2,9.6,2.6,12.4
			c-0.4-0.2-0.8-0.3-1.2-0.6c-5-2.8-6.8-9.2-4-14.2c2.8-5,9.2-6.8,14.2-4C367.9,165.3,369.5,167.4,370.3,169.7z"/>
		<path fill="#ECEAE7" d="M364.7,162.1c-1.2-0.8-2.7-1.4-4.3-1.6c-5.3-0.6-10,3.2-10.6,8.5c-0.5,4.9,2.7,9.3,7.3,10.4
			c-0.4,0-0.8,0-1.3-0.1c-5.7-0.6-9.8-5.8-9.2-11.5c0.6-5.7,5.8-9.8,11.5-9.2C360.8,158.9,363.1,160.2,364.7,162.1z"/>
		<circle fill="#ECEAE7" cx="332.8" cy="178.4" r="7.1"/>
		<path fill="#7894A2" d="M290.7,185.6c0,0-12.6,5.9-7,8.3C288.4,195.9,287.1,191,290.7,185.6z"/>
		<path fill="#7894A2" d="M285.1,183c0,0-12.9-5.1-10.8,0.7C276.1,188.4,278.7,184.1,285.1,183z"/>
	</g>
	<g>
		<ellipse fill="#ECEAE7" cx="111.3" cy="300.5" rx="68.7" ry="47.7"/>
		<path fill="#ECEAE7" d="M50.8,295.2c20.5,20.5,51.2,24.3,75.6,11.6c-1.1,1.3-2.2,2.5-3.4,3.7c-22.2,22.2-58.2,22.2-80.4,0
			c-17.8-17.8-21.3-44.4-10.6-65.7C30.8,262.9,37,281.4,50.8,295.2z"/>
		<path fill="#ECEAE7" d="M59.4,326.5c21.1-1,38.4-15.8,43.5-35.3c0.2,1.2,0.3,2.4,0.4,3.7c1.1,22.9-16.6,42.4-39.5,43.6
			c-18.4,0.9-34.5-10.3-40.8-26.5C32.1,321.5,45.2,327.2,59.4,326.5z"/>
		<path fill="#ECEAE7" d="M48.3,310c21,5.9,42.7-2.9,54-20.2c-0.2,1.2-0.5,2.5-0.9,3.7c-6.4,22.8-30.1,36.1-52.9,29.6
			c-18.2-5.1-30.4-21.3-31.2-39.3C23.3,296.2,34.2,306,48.3,310z"/>
		<path fill="#D5D5D5" d="M169.7,279.9c-12.1-13.5-33.7-22.5-58.4-22.5c-36.8,0-66.9,20.1-68.6,45.4c-0.1-0.8-0.1-1.5-0.1-2.3
			c0-26.3,30.8-47.7,68.7-47.7c26.1,0,48.9,10.1,60.5,25L169.7,279.9z"/>
		<path fill="#ECEAE7" d="M159.6,290.2c2.8-1.9,5.5-4.1,7.8-6.7c16-17.3,14.9-44.2-2.4-60.2c-9-8.3-20.7-12-32-11.2
			c-2.1-6.2-3.9-11.9-5.5-16.8c17.3-2.5,35.4,2.5,49.3,15.2c24.3,22.4,25.8,60.3,3.4,84.6c-4.4,4.8-9.4,8.6-14.8,11.7
			C164.3,303.5,162.2,297.6,159.6,290.2z"/>
		<path fill="#D5D5D5" d="M155.2,204.9c-3.5,3.8-7.8,6.3-12.5,7.6c-3.2-0.5-6.4-0.6-9.6-0.4c-2.1-6.2-3.9-11.9-5.5-16.8
			c10.6-1.5,21.6-0.2,31.6,4C158.1,201.3,156.8,203.2,155.2,204.9z"/>
		
			<ellipse transform="matrix(4.938710e-02 -0.9988 0.9988 4.938710e-02 -66.4172 312.8969)" fill="#ECEAE7" cx="131.2" cy="191.3" rx="23.9" ry="25.7"/>
		<path fill="#D3863C" d="M120.4,169.6c0,0,16.8-11.4,15.7-26.8c-1.1-15.4,9.9-17.7,7.9,27.9c0,0-0.3,6.8-12,2.8
			C120.4,169.6,119.4,173.1,120.4,169.6z"/>
		<path fill="#D3863C" d="M149.4,177.3c0,0-0.2-10.7,7.1-17.6c7.2-6.9,4.8-11.5-15,10.5c0,0-2.9,3.3,2.5,5.2
			C149.4,177.3,148.1,179.3,149.4,177.3z"/>
		<g>
			<path fill="#B57432" d="M142.6,170.6c0,0-0.2,4-5.6,4.1c6.8,0.7,7-4,7-4c1.3-30.3-3.1-39.5-5.9-37.7
				C140.8,134.8,143.7,145.3,142.6,170.6z"/>
			<path fill="#B57432" d="M120.8,171.3c0.1,0,0.2,0,0.3,0C121,171.3,120.9,171.3,120.8,171.3z"/>
		</g>
		<circle fill="#D5D5D5" cx="122.4" cy="183.6" r="5.3"/>
		<circle fill="#231F20" cx="122.9" cy="183.2" r="3.5"/>
		<path fill="#ECEAE7" d="M97.7,189.3c0.5,1.4,1.3,2.8,2.4,3.9c3.8,3.7,9.9,3.6,13.6-0.2c3.4-3.5,3.6-9,0.6-12.7
			c0.3,0.3,0.7,0.5,1,0.8c4.1,4,4.2,10.6,0.2,14.7c-4,4.1-10.6,4.2-14.7,0.2C98.9,194.2,97.9,191.8,97.7,189.3z"/>
		<path fill="#ECEAE7" d="M101.2,198.2c1,1.1,2.3,2,3.8,2.6c5,1.9,10.5-0.6,12.4-5.5c1.8-4.6-0.2-9.7-4.4-11.9
			c0.4,0.1,0.8,0.2,1.2,0.4c5.4,2.1,8,8.1,6,13.5c-2.1,5.4-8.1,8-13.5,6C104.2,202.2,102.3,200.4,101.2,198.2z"/>
		<path fill="#7894A2" d="M149,145.4c0,0,9-10.6,9.9-4.5C159.5,145.9,155.2,143.4,149,145.4z"/>
		<path fill="#7894A2" d="M147.9,139.3c0,0-1.4-13.8,3.5-10.2C155.6,132,150.8,133.4,147.9,139.3z"/>
	</g>
	<g>
		<path fill="#BA7834" d="M218.2,242.2c2.3-0.8,28.4-7,28.4-7l-9.5,22.7L218.2,242.2z"/>
		<polygon fill="#A0672B" points="218.2,242.2 232.6,248.9 232.4,238.8 236.9,247.8 246.6,235.3 		"/>
		
			<rect x="235.7" y="251.8" transform="matrix(0.9711 -0.2388 0.2388 0.9711 -55.3191 64.3027)" fill="#BA7834" width="4.1" height="17.3"/>
	</g>
	
		<rect x="234.8" y="259.3" transform="matrix(0.9808 -0.195 0.195 0.9808 -47.6016 51.7066)" fill="#ECEAE7" width="7.9" height="16.6"/>
	
		<rect x="235.8" y="269" transform="matrix(0.9808 -0.1951 0.1951 0.9808 -48.5415 52.0116)" fill="#D5D5D5" width="7.9" height="6.8"/>
	<g>
		<path fill="#BA7834" d="M260,240.7c2.3,0.6,27.5,10,27.5,10L267,264.2L260,240.7z"/>
		<polygon fill="#A0672B" points="260,240.7 268.3,254.2 273.8,245.6 272.5,255.7 287.5,250.6 		"/>
		
			<rect x="264.1" y="258" transform="matrix(0.9399 0.3414 -0.3414 0.9399 107.0372 -74.8459)" fill="#BA7834" width="4.1" height="17.3"/>
	</g>
	
		<rect x="258.9" y="267.5" transform="matrix(0.9354 0.3535 -0.3535 0.9354 114.4766 -75.1117)" fill="#ECEAE7" width="7.9" height="16.6"/>
	<path fill="#ECEAE7" d="M298.9,340.5c2.9-6,4.6-12.7,4.6-19.8c0-27.2-24.5-49.3-54.8-49.3c-30.3,0-54.8,22.1-54.8,49.3
		c0,6.7,1.5,13.1,4.2,19c14.7,1.6,33.7,2.6,54.5,2.6C269.8,342.3,285.7,341.6,298.9,340.5z"/>
	<path fill="#D5D5D5" d="M200.6,321.4c0-27.2,24.5-49.3,54.8-49.3c0.9,0,1.8,0,2.7,0.1c-3-0.5-6.1-0.7-9.3-0.7
		c-30.3,0-54.8,22.1-54.8,49.3c0,6.7,1.5,13.1,4.2,19c2.1,0.2,4.3,0.5,6.6,0.7C202.1,334.5,200.6,328.1,200.6,321.4z"/>
	<path fill="#ECEAE7" d="M284.8,278.5c-13.7,16.1-35.8,20.7-54.3,13c0.9,0.9,1.7,1.7,2.7,2.5c17.5,14.8,43.6,12.7,58.4-4.8
		c11.9-14,12.9-33.5,3.8-48.4C297.5,253.9,294,267.7,284.8,278.5z"/>
	<path fill="#ECEAE7" d="M280.4,301.8c-15.4,0.5-28.8-9.2-33.7-23.1c0,0.9-0.1,1.8,0,2.7c0.5,16.7,14.6,29.9,31.3,29.3
		c13.4-0.4,24.5-9.5,28.1-21.7C300,296.5,290.8,301.5,280.4,301.8z"/>
	<path fill="#ECEAE7" d="M287.5,289.1c-14.9,5.5-31.2,0.4-40.5-11.5c0.2,0.9,0.5,1.8,0.8,2.6c6,16.2,24,24.4,40.2,18.4
		c13-4.8,20.8-17.3,20.4-30.4C304.9,277.6,297.6,285.4,287.5,289.1z"/>
</g>
</svg>
