<?xml version="1.0" encoding="utf-8"?>
<!-- Generator: Adobe Illustrator 18.1.1, SVG Export Plug-In . SVG Version: 6.00 Build 0)  -->
<svg version="1.1" id="Layer_1" xmlns="http://www.w3.org/2000/svg" xmlns:xlink="http://www.w3.org/1999/xlink" x="0px" y="0px"
	 viewBox="0 0 500 500" enable-background="new 0 0 500 500" xml:space="preserve">
<g>
	<circle fill="#ECEAE7" cx="263.5" cy="225" r="129.8"/>
	<path fill="#ECEAE7" d="M153.2,256.3c38.6-38.6,96.7-46,142.8-22c-2-2.4-4.2-4.8-6.4-7c-41.9-41.9-109.9-41.9-151.8,0
		c-33.6,33.6-40.2,83.8-20,124.1C115.3,317.2,127.1,282.3,153.2,256.3z"/>
	<path fill="#ECEAE7" d="M169.4,197.2c39.9,2,72.5,29.9,82.1,66.6c0.3-2.3,0.6-4.6,0.7-6.9c2.1-43.3-31.3-80.2-74.6-82.3
		c-34.7-1.7-65.2,19.4-77.1,50.1C117.8,206.6,142.5,195.8,169.4,197.2z"/>
	<path fill="#ECEAE7" d="M148.5,228.3c39.7-11.2,80.6,5.4,102,38.2c-0.4-2.3-1-4.7-1.6-7c-12.1-43-56.8-68.1-99.8-56
		c-34.5,9.7-57.4,40.3-58.9,74.2C101.1,254.5,121.7,235.9,148.5,228.3z"/>
	<path fill="#D5D5D5" d="M373.7,280.9c-22.9,36.8-63.7,61.3-110.2,61.3c-69.6,0-126.4-54.8-129.6-123.5c-0.1,2.1-0.2,4.2-0.2,6.3
		c0,71.7,58.1,129.8,129.8,129.8c49.4,0,92.3-27.6,114.2-68.2L373.7,280.9z"/>
	<path fill="#ECEAE7" d="M345.6,291.4c33.3,44.2,24.5,107.1-19.7,140.4c-44.2,33.3-107.1,24.5-140.4-19.7c-0.2-0.3-0.4-0.5-0.6-0.8
		l-35.7,26.9c48.2,63.9,139,76.7,202.9,28.5c63.9-48.2,76.7-139,28.5-202.9L345,290.6C345.2,290.9,345.4,291.1,345.6,291.4z"/>
	<g>
		<path fill="#D5D5D5" d="M380.7,263.8l-0.8,0.6c44.1,63.6,30.4,151.2-31.9,198.2c-57.6,43.4-137.1,37.3-187.4-11.1
			c50.1,52.2,132.4,59.9,191.6,15.2C416.1,418.5,428.9,327.7,380.7,263.8z"/>
	</g>
	<path fill="#D5D5D5" d="M185.5,412.1c-0.2-0.3-0.4-0.5-0.6-0.8L158.8,431c6.2,18.9,22.9,32.5,42.6,32.5c13.4,0,25.4-6.3,33.7-16.2
		C216,441.1,198.5,429.3,185.5,412.1z"/>
	<ellipse fill="#ECEAE7" cx="187.5" cy="412.1" rx="45.2" ry="48.6"/>
	<path fill="#D3863C" d="M227.6,389.8c0,0,23,30.6,52,27.2c29-3.5,34.3,17.1-52,17.6c0,0-12.9,0-6.5-22.4
		C227.6,389.8,220.9,388.3,227.6,389.8z"/>
	<g>
		<path fill="#B57432" d="M227.6,431.7c0,0-7.6,0-8.2-10.1c-0.7,12.9,8.2,12.9,8.2,12.9c57.2-0.3,74.1-9.5,70.6-14.6
			C295.1,425,275.4,431.4,227.6,431.7z"/>
		<path fill="#B57432" d="M224.3,390.7c0,0.2,0,0.4,0,0.7C224.3,391.1,224.3,390.9,224.3,390.7z"/>
	</g>
	<path fill="#D5D5D5" d="M211.1,394.9c0,5.5-4.4,9.9-9.9,9.9c-5.5,0-9.9-4.4-9.9-9.9c0-5.5,4.4-9.9,9.9-9.9
		C206.7,385,211.1,389.4,211.1,394.9z"/>
	<circle fill="#231F20" cx="202.1" cy="395.8" r="6.7"/>
	<path fill="#ECEAE7" d="M135.8,379.1c2-2,4.5-3.5,7.4-4.4c9.6-2.9,19.7,2.6,22.6,12.2c2.7,8.9-1.8,18.1-10,21.8
		c0.8-0.1,1.6-0.3,2.4-0.5c10.4-3.1,16.3-14.1,13.2-24.5c-3.1-10.4-14.1-16.3-24.5-13.2C142.1,371.9,138.2,375.1,135.8,379.1z"/>
	<path fill="#ECEAE7" d="M149.3,367.2c2.6-1,5.6-1.4,8.6-1.1c10,1.1,17.1,10.1,16,20.1c-1,9.2-8.8,16-17.8,16.1
		c0.8,0.2,1.6,0.3,2.4,0.4c10.8,1.2,20.5-6.5,21.7-17.3c1.2-10.8-6.5-20.5-17.3-21.7C157.9,363.1,153.1,364.5,149.3,367.2z"/>
	<circle fill="#ECEAE7" cx="201.2" cy="410.6" r="13.4"/>
	<path fill="#BA7834" d="M315,35c-4.6-3-59.3-30.9-59.3-30.9l8.8,55.4L315,35z"/>
	<polygon fill="#A0672B" points="315,35 279.5,42.1 285.4,19.6 270.3,37.3 255.8,4.1 	"/>
	
		<rect x="257.1" y="45.1" transform="matrix(-0.8867 -0.4624 0.4624 -0.8867 463.8941 243.4077)" fill="#BA7834" width="9.3" height="39.5"/>
	<path fill="#ECEAE7" d="M268.9,74c-13.1,19.1-11.2,45.4,5.8,62.3c17,17,43.2,18.9,62.3,5.8l13.6,13.6c-26.7,20.4-65,18.5-89.4-5.9
		c-24.4-24.4-26.4-62.7-5.9-89.4L268.9,74z"/>
	<path fill="#BA7834" d="M367.7,83.6c-2.6-4.2-37.4-48.4-37.4-48.4l-14,49.4L367.7,83.6z"/>
	<polygon fill="#A0672B" points="367.7,83.6 335.5,75.8 349,59.4 329.7,68.3 330.3,35.1 	"/>
	
		<rect x="307.7" y="69.8" transform="matrix(-0.6109 -0.7917 0.7917 -0.6109 432.9609 388.6089)" fill="#BA7834" width="8.5" height="36.1"/>
	<path fill="#ECEAE7" d="M314.4,98.3c-18.2,10.8-26.7,33.4-19.2,54c7.6,20.6,28.7,32.3,49.6,28.7l6.1,16.5c-30,6.7-61.1-9.6-72-39.3
		c-10.9-29.6,2.2-62.2,29.4-76.5L314.4,98.3z"/>
</g>
</svg>
