<?xml version="1.0" encoding="utf-8"?>
<!-- Generator: Adobe Illustrator 18.1.1, SVG Export Plug-In . SVG Version: 6.00 Build 0)  -->
<svg version="1.1" id="Layer_1" xmlns="http://www.w3.org/2000/svg" xmlns:xlink="http://www.w3.org/1999/xlink" x="0px" y="0px"
	 viewBox="6.5 6.5 487 487" enable-background="new 6.5 6.5 487 487" xml:space="preserve">
<path d="M464.8,8.6H35.2c-14.8,0-26.6,12-26.6,26.6v429.6c0,14.8,12,26.6,26.6,26.6h231.2v-187h-62.8v-72.9h62.9v-53.8
	c0-62.4,38-96.3,93.7-96.3c26.6,0,49.6,2.1,56.2,2.8v65.2h-38.6c-30.2,0-36.2,14.4-36.2,35.4v46.5h72.1l-9.4,72.9h-62.8v187h123.1
	c14.8,0,26.6-12,26.6-26.6V35.2C491.4,20.6,479.4,8.6,464.8,8.6z"/>
</svg>
