<?xml version="1.0" encoding="utf-8"?>
<!-- Generator: Adobe Illustrator 18.1.1, SVG Export Plug-In . SVG Version: 6.00 Build 0)  -->
<svg version="1.1"
	 id="Layer_1" xmlns:rdf="http://www.w3.org/1999/02/22-rdf-syntax-ns#" xmlns:svg="http://www.w3.org/2000/svg" xmlns:cc="http://creativecommons.org/ns#" xmlns:sodipodi="http://sodipodi.sourceforge.net/DTD/sodipodi-0.dtd" xmlns:dc="http://purl.org/dc/elements/1.1/" xmlns:inkscape="http://www.inkscape.org/namespaces/inkscape"
	 xmlns="http://www.w3.org/2000/svg" xmlns:xlink="http://www.w3.org/1999/xlink" x="0px" y="0px" viewBox="6 -6 512 512"
	 enable-background="new 6 -6 512 512" xml:space="preserve">
<path d="M454-6H70C34.7-6,6,22.7,6,58v384c0,35.3,28.7,64,64,64h384c35.3,0,64-28.7,64-64V58C518,22.7,489.3-6,454-6z M421.1,168.4
	c0.2,3.5,0.2,7.1,0.2,10.6c0,108.4-82.5,233.5-233.5,233.5c-46.3,0-89.5-13.6-125.8-36.9c6.4,0.8,13,1.2,19.6,1.2
	c38.5,0,73.8-13.1,101.9-35.1c-35.9-0.7-66.2-24.4-76.7-57c5,0.9,10.1,1.5,15.4,1.5c7.5,0,14.7-1,21.6-2.9
	c-37.5-7.6-65.8-40.7-65.8-80.5c0-0.3,0-0.7,0-1c11.1,6.1,23.7,9.8,37.2,10.3c-22-14.7-36.5-39.8-36.5-68.3c0-15,4-29.1,11.1-41.3
	c40.5,49.7,100.9,82.3,169.1,85.8c-1.4-6-2.1-12.3-2.1-18.7c0-45.3,36.7-82.1,82.1-82.1c23.6,0,44.9,10,59.9,25.9
	c18.7-3.7,36.3-10.5,52.1-19.9c-6.1,19.2-19.1,35.2-36.1,45.4c16.6-2,32.4-6.4,47.1-12.9c0,0,0,0,0,0l0,0c0,0,0,0,0,0
	C451,142.4,437.1,156.8,421.1,168.4z"/>
</svg>
