<?xml version="1.0" encoding="utf-8"?>
<!-- Generator: Adobe Illustrator 18.1.1, SVG Export Plug-In . SVG Version: 6.00 Build 0)  -->
<svg version="1.1" id="Layer_1" xmlns="http://www.w3.org/2000/svg" xmlns:xlink="http://www.w3.org/1999/xlink" x="0px" y="0px"
	 viewBox="0 0 459.3 459.3" enable-background="new 0 0 459.3 459.3" xml:space="preserve">
<g>
	<defs>
		<rect id="SVGID_1_" x="1.5" y="1.5" width="456.3" height="456.3"/>
	</defs>
	<clipPath id="SVGID_2_">
		<use xlink:href="#SVGID_1_"  overflow="visible"/>
	</clipPath>
	<path clip-path="url(#SVGID_2_)" fill="#010101" d="M229.7,42.6c60.9,0,68.1,0.2,92.2,1.3c22.2,1,34.3,4.7,42.4,7.9
		c10.6,4.1,18.2,9.1,26.2,17.1c8,8,12.9,15.6,17.1,26.2c3.1,8,6.8,20.1,7.9,42.4c1.1,24.1,1.3,31.3,1.3,92.2
		c0,60.9-0.2,68.1-1.3,92.2c-1,22.2-4.7,34.3-7.9,42.4c-4.1,10.6-9.1,18.2-17.1,26.2c-8,8-15.6,12.9-26.2,17.1
		c-8,3.1-20.1,6.8-42.4,7.9c-24.1,1.1-31.3,1.3-92.2,1.3c-60.9,0-68.1-0.2-92.2-1.3c-22.2-1-34.3-4.7-42.4-7.9
		c-10.6-4.1-18.2-9.1-26.2-17.1c-8-8-12.9-15.6-17.1-26.2c-3.1-8-6.8-20.1-7.9-42.4c-1.1-24.1-1.3-31.3-1.3-92.2
		c0-60.9,0.2-68.1,1.3-92.2c1-22.2,4.7-34.3,7.9-42.4c4.1-10.6,9.1-18.2,17.1-26.2c8-8,15.6-12.9,26.2-17.1c8-3.1,20.1-6.8,42.4-7.9
		C161.5,42.9,168.8,42.6,229.7,42.6 M229.7,1.5c-62,0-69.7,0.3-94.1,1.4c-24.3,1.1-40.9,5-55.4,10.6c-15,5.8-27.7,13.6-40.4,26.3
		C27.1,52.5,19.3,65.2,13.5,80.2C7.9,94.7,4,111.3,2.9,135.6c-1.1,24.3-1.4,32.1-1.4,94.1c0,62,0.3,69.7,1.4,94.1
		c1.1,24.3,5,40.9,10.6,55.4c5.8,15,13.6,27.7,26.3,40.4c12.7,12.7,25.4,20.5,40.4,26.3c14.5,5.6,31.1,9.5,55.4,10.6
		c24.3,1.1,32.1,1.4,94.1,1.4c62,0,69.7-0.3,94.1-1.4c24.3-1.1,40.9-5,55.4-10.6c15-5.8,27.7-13.6,40.4-26.3
		c12.7-12.7,20.5-25.4,26.3-40.4c5.6-14.5,9.5-31.1,10.6-55.4c1.1-24.3,1.4-32.1,1.4-94.1c0-62-0.3-69.7-1.4-94.1
		c-1.1-24.3-5-40.9-10.6-55.4c-5.8-15-13.6-27.7-26.3-40.4c-12.7-12.7-25.4-20.5-40.4-26.3C364.6,7.9,348,4,323.7,2.9
		C299.4,1.8,291.6,1.5,229.7,1.5"/>
	<path clip-path="url(#SVGID_2_)" fill="#010101" d="M229.7,112.5c-64.7,0-117.2,52.5-117.2,117.2c0,64.7,52.5,117.2,117.2,117.2
		c64.7,0,117.2-52.4,117.2-117.2C346.8,165,294.4,112.5,229.7,112.5 M229.7,305.7c-42,0-76-34-76-76c0-42,34-76,76-76
		c42,0,76,34,76,76C305.7,271.7,271.7,305.7,229.7,305.7"/>
	<path clip-path="url(#SVGID_2_)" fill="#010101" d="M378.8,107.9c0,15.1-12.3,27.4-27.4,27.4c-15.1,0-27.4-12.3-27.4-27.4
		c0-15.1,12.3-27.4,27.4-27.4C366.6,80.5,378.8,92.8,378.8,107.9"/>
</g>
</svg>
